<svg width="84" height="84" viewBox="0 0 84 84" fill="none" xmlns="http://www.w3.org/2000/svg">
<path d="M78.3565 82.8834L71.5753 28.2028C71.6305 28.6389 71.666 29.08 71.6966 29.526L71.6976 29.8789C71.6985 30.222 71.6995 30.5701 71.7004 30.923C71.7006 30.9965 71.7008 31.07 71.701 31.1485C71.7022 31.57 71.7033 31.9916 71.6555 32.4231C71.6558 32.5309 71.6561 32.6436 71.6564 32.7564C71.6328 33.0898 71.6043 33.4281 71.566 33.7713C71.5664 33.8938 71.5422 34.0164 71.5278 34.1439C71.4702 34.5852 71.4077 35.0266 71.3305 35.4778L71.3307 35.5562C71.268 35.9142 71.2003 36.2722 71.1229 36.6351C71.0938 36.7676 71.0599 36.9 71.0308 37.0275C70.9727 37.2875 70.9097 37.5475 70.8467 37.8074C70.8079 37.9644 70.7593 38.1214 70.7205 38.2979C70.6526 38.5334 70.5895 38.7885 70.5166 39.0142C70.468 39.181 70.4146 39.3478 70.3611 39.5048C70.3076 39.6618 70.2153 39.9659 70.1375 40.2014C70.0597 40.4369 70.0208 40.5449 69.9575 40.7166C69.8943 40.8883 69.7921 41.1778 69.6996 41.4134C69.6072 41.6489 69.5682 41.7568 69.5001 41.9286C69.4319 42.1003 69.3102 42.4193 69.2128 42.6352L68.9936 43.126L68.6622 43.8573C68.5842 44.0193 68.5112 44.1861 68.4332 44.3481C68.3065 44.6131 68.1748 44.8733 68.0383 45.1384C67.9505 45.3102 67.8677 45.4868 67.775 45.6587C67.5166 46.1495 67.2532 46.6404 66.9751 47.1314C66.8776 47.3032 66.7702 47.4702 66.6677 47.6224C66.4871 47.9268 66.3066 48.2361 66.1162 48.5405C65.9894 48.7418 65.8527 48.9432 65.7209 49.1445C65.589 49.3459 65.3792 49.6748 65.2034 49.9351L64.8177 50.4754C64.6272 50.7455 64.4368 51.0254 64.2366 51.2956C63.8068 51.8751 63.3574 52.445 62.9031 53.0099L62.5415 53.4472C62.1262 53.9385 61.7011 54.4298 61.2711 54.9212L61.1049 55.1079C60.6553 55.5993 60.2008 56.0907 59.7314 56.5478L59.3452 56.9312C58.9933 57.2802 58.6363 57.6194 58.2745 57.9586L57.8198 58.3716C57.3895 58.76 56.9592 59.1435 56.5141 59.5173L56.299 59.7042C55.7854 60.132 55.267 60.5452 54.7436 60.9485C54.4256 61.1896 54.1077 61.4405 53.7652 61.6669L53.594 61.7948C53.1928 62.0851 52.7867 62.3656 52.3758 62.6461L52.0284 62.8774C51.7299 63.0792 51.4265 63.2761 51.1231 63.4681L50.7121 63.7241L49.9829 64.1673L49.2243 64.6105L48.5538 64.9849L47.7903 65.3938L47.1099 65.7437L46.3364 66.1232L45.6511 66.4486L44.8726 66.7939L44.1774 67.0899L43.3988 67.4008C43.1638 67.4946 42.9337 67.5834 42.6986 67.6674C42.4635 67.7514 42.1746 67.86 41.9151 67.9489C41.6555 68.0379 41.4498 68.112 41.2148 68.1861L40.4262 68.4334L39.7308 68.6411L38.9323 68.8492L38.2417 69.0226L37.4431 69.2013L36.7524 69.3453L35.9489 69.4848L35.2727 69.5944L34.4642 69.6947L33.7978 69.77C33.5282 69.7708 33.2538 69.8156 32.9842 69.8311C32.7147 69.8465 32.553 69.8665 32.3373 69.8769L31.5089 69.8792C31.2981 69.8798 31.0923 69.8803 30.8864 69.8809C30.5972 69.8817 30.308 69.8825 30.0236 69.8587L29.4501 69.8603C29.1364 69.8612 28.8225 69.8081 28.5087 69.7795C28.3519 69.78 28.1901 69.7559 28.0185 69.7368C27.5526 69.6841 27.0868 69.6167 26.6258 69.5347C26.3316 69.4865 26.0373 69.4284 25.7479 69.3655C25.4585 69.3026 25.179 69.2396 24.8994 69.1668L78.3565 82.8834Z" fill="url(#paint0_linear)"/>
<path d="M78.09 80.7461C75.9182 63.233 73.7463 45.7183 71.5745 28.202C71.6296 28.6381 71.6651 29.0791 71.6957 29.5251L71.6967 29.878C71.6976 30.2212 71.6986 30.5692 71.6995 30.9221C71.6997 30.9956 71.6999 31.0692 71.7002 31.1476C71.7013 31.5692 71.7024 31.9907 71.6546 32.4222C71.6549 32.53 71.6552 32.6428 71.6555 32.7555C71.6319 33.0889 71.6034 33.4272 71.5651 33.7704C71.5655 33.893 71.5413 34.0156 71.527 34.1431C71.4693 34.5844 71.4068 35.0257 71.3296 35.4769L71.3298 35.5553C71.2671 35.9133 71.1994 36.2713 71.122 36.6343C71.0929 36.7667 71.059 36.8991 71.0299 37.0267C70.9718 37.2866 70.9088 37.5466 70.8458 37.8066C70.807 37.9635 70.7584 38.1205 70.7197 38.2971C70.6517 38.5326 70.5886 38.7876 70.5157 39.0133C70.4672 39.1801 70.4137 39.3469 70.3602 39.5039C70.3067 39.6609 70.2144 39.9651 70.1366 40.2006C70.0588 40.4361 70.0199 40.544 69.9567 40.7157C69.8934 40.8875 69.7913 41.177 69.6988 41.4125C69.6063 41.648 69.5674 41.756 69.4992 41.9277C69.431 42.0995 69.3094 42.4184 69.2119 42.6344L68.9927 43.1251L68.6614 43.8564C68.5834 44.0184 68.5103 44.1853 68.4323 44.3472C68.3056 44.6123 68.1739 44.8724 68.0374 45.1375C67.9497 45.3093 67.8668 45.486 67.7741 45.6578C67.5157 46.1487 67.2523 46.6396 66.9743 47.1305C66.8767 47.3023 66.7693 47.4693 66.6668 47.6215C66.4862 47.9259 66.3057 48.2352 66.1154 48.5397C65.9885 48.741 65.8518 48.9423 65.72 49.1437C65.5882 49.345 65.3783 49.674 65.2026 49.9343L64.8168 50.4745C64.6264 50.7446 64.436 51.0245 64.2357 51.2947C63.8059 51.8743 63.3565 52.4441 62.9022 53.009L62.5407 53.4463C62.1253 53.9376 61.7002 54.4289 61.2702 54.9203L61.1041 55.107C60.6544 55.5984 60.1999 56.0898 59.7306 56.547L59.3444 56.9304C58.9924 57.2794 58.6355 57.6186 58.2737 57.9578L57.819 58.3707C57.3887 58.7592 56.9583 59.1427 56.5133 59.5164L56.2981 59.7033C55.7846 60.1311 55.2661 60.5443 54.7427 60.9477C54.4248 61.1887 54.1069 61.4396 53.7644 61.666L53.5931 61.7939C53.192 62.0842 52.7859 62.3647 52.3749 62.6452L52.0716 62.847C60.5296 69.1326 69.7934 74.3327 78.09 80.7461Z" fill="url(#paint1_linear)"/>
<path d="M57.2502 58.8925C71.4747 46.3757 75.9964 28.2628 67.3496 18.4363C58.7028 8.60986 40.1619 10.7908 25.9374 23.3077C11.7129 35.8245 7.19125 53.9374 15.838 63.7638C24.4848 73.5903 43.0257 71.4093 57.2502 58.8925Z" fill="url(#paint2_linear)"/>
<path style="mix-blend-mode:overlay" opacity="0.8" d="M56.5329 12.6556C42.0706 10.1314 23.6592 20.8234 15.4229 36.5364C7.18663 52.2495 12.212 67.0343 26.6743 69.5537C41.1365 72.073 59.543 61.3859 67.7842 45.6728C76.0255 29.9598 70.9903 15.1799 56.5329 12.6556ZM67.475 45.5119C60.1602 59.4186 44.8844 69.5383 31.1105 69.5759C29.6399 69.5826 28.1716 69.4603 26.7224 69.2104C20.7541 68.1728 16.1374 64.8864 13.7123 59.9717C10.5726 53.6079 11.3042 45.1013 15.7175 36.6925C23.0322 22.7858 38.313 12.6661 52.082 12.6285C53.5606 12.6188 55.0372 12.7394 56.4946 12.9891C62.4629 14.0316 67.0844 17.313 69.5046 22.2327C72.6396 28.621 71.8931 37.1031 67.475 45.5119Z" fill="url(#paint3_linear)"/>
<defs>
<linearGradient id="paint0_linear" x1="48.1466" y1="82.853" x2="57.9423" y2="63.7682" gradientUnits="userSpaceOnUse">
<stop stop-color="#9593EA"/>
<stop offset="0.12" stop-color="#9593EA"/>
<stop offset="0.3" stop-color="#9593EA"/>
<stop offset="0.52" stop-color="#7674D1"/>
<stop offset="0.61" stop-color="#6765C6"/>
<stop offset="0.73" stop-color="#6765C6"/>
<stop offset="0.86" stop-color="#6765C6"/>
</linearGradient>
<linearGradient id="paint1_linear" x1="77.7269" y1="53.6157" x2="64.5468" y2="57.5289" gradientUnits="userSpaceOnUse">
<stop offset="0.01" stop-color="#C6C5F9" stop-opacity="0.49"/>
<stop offset="0.15" stop-color="#C6C5F9" stop-opacity="0.31"/>
<stop offset="0.28" stop-color="#C6C5F9" stop-opacity="0.18"/>
<stop offset="0.41" stop-color="#C6C5F9" stop-opacity="0.08"/>
<stop offset="0.53" stop-color="#C6C5F9" stop-opacity="0.02"/>
<stop offset="0.62" stop-color="#C6C5F9" stop-opacity="0"/>
</linearGradient>
<linearGradient id="paint2_linear" x1="30.4293" y1="15.9145" x2="51.5833" y2="63.6689" gradientUnits="userSpaceOnUse">
<stop offset="0.03" stop-color="#B964F0"/>
<stop offset="1" stop-color="#363C75"/>
</linearGradient>
<linearGradient id="paint3_linear" x1="27793.3" y1="7966.47" x2="26800.4" y2="13132.2" gradientUnits="userSpaceOnUse">
<stop stop-color="#FEEAEA"/>
<stop offset="0.09" stop-color="#FEE9E9" stop-opacity="0.97"/>
<stop offset="0.22" stop-color="#FEE6E6" stop-opacity="0.89"/>
<stop offset="0.38" stop-color="#FEE0E0" stop-opacity="0.75"/>
<stop offset="0.57" stop-color="#FED9D9" stop-opacity="0.56"/>
<stop offset="0.77" stop-color="#FDCFD0" stop-opacity="0.31"/>
<stop offset="0.99" stop-color="#FDC4C5" stop-opacity="0.02"/>
<stop offset="1" stop-color="#FDC3C4" stop-opacity="0"/>
</linearGradient>
</defs>
</svg>
