<svg width="276" height="64" viewBox="0 0 276 64" fill="none" xmlns="http://www.w3.org/2000/svg">
<path d="M29.5003 0L37.281 21.7196L59.0006 29.5003L37.281 37.281L29.5003 59.0006L21.7196 37.281L0 29.5003L21.7196 21.7196L29.5003 0Z" fill="#5BCAD2"/>
<path d="M34.4172 4.91699L42.198 26.6366L63.9175 34.4173L42.198 42.198L34.4172 63.9176L26.6365 42.198L4.91693 34.4173L26.6365 26.6366L34.4172 4.91699Z" fill="#E93745"/>
<mask id="mask0" mask-type="alpha" maskUnits="userSpaceOnUse" x="0" y="0" width="60" height="60">
<path d="M29.5003 0L37.281 21.7196L59.0006 29.5003L37.281 37.281L29.5003 59.0006L21.7196 37.281L0 29.5003L21.7196 21.7196L29.5003 0Z" fill="#5BCAD2"/>
</mask>
<g mask="url(#mask0)">
<path d="M34.4169 4.91699L42.1976 26.6366L63.9172 34.4173L42.1976 42.198L34.4169 63.9176L26.6361 42.198L4.91656 34.4173L26.6361 26.6366L34.4169 4.91699Z" fill="white"/>
</g>
<path d="M55.9277 2.90527L58.0349 8.78766L63.9173 10.8949L58.0349 13.0022L55.9277 18.8846L53.8204 13.0022L47.938 10.8949L53.8204 8.78766L55.9277 2.90527Z" fill="white"/>
<path d="M87.4387 20.0707H93.8886V40.6754H98.0025V20.0707H104.452V16.2706H87.4387V20.0707Z" fill="white"/>
<path d="M106.994 18.2578C106.994 18.8854 107.227 19.4316 107.691 19.8964C108.18 20.338 108.737 20.5588 109.365 20.5588C110.039 20.5588 110.608 20.338 111.073 19.8964C111.538 19.4316 111.771 18.8854 111.771 18.2578C111.771 17.607 111.538 17.0608 111.073 16.6192C110.608 16.1776 110.039 15.9568 109.365 15.9568C108.737 15.9568 108.18 16.1776 107.691 16.6192C107.227 17.0608 106.994 17.607 106.994 18.2578ZM107.517 24.6379V40.6754H111.248V24.6379H107.517Z" fill="white"/>
<path d="M114.197 24.6379V27.95H123.297V24.6379H114.197ZM116.917 19.0597V40.6754H120.612V19.0597H116.917Z" fill="white"/>
<path d="M123.662 34.0861H130.809V30.7043H123.662V34.0861Z" fill="white"/>
<path d="M131.152 24.6379V27.95H140.252V24.6379H131.152ZM133.872 19.0597V40.6754H137.567V19.0597H133.872Z" fill="white"/>
<path d="M141.629 32.6566C141.629 34.2836 142 35.7363 142.744 37.0146C143.511 38.2697 144.545 39.2576 145.847 39.9781C147.172 40.6754 148.648 41.024 150.275 41.024C151.925 41.024 153.401 40.6754 154.703 39.9781C156.004 39.2576 157.027 38.2697 157.771 37.0146C158.538 35.7363 158.921 34.2836 158.921 32.6566C158.921 31.0064 158.538 29.5537 157.771 28.2986C157.027 27.0435 156.004 26.0673 154.703 25.3701C153.401 24.6495 151.925 24.2893 150.275 24.2893C148.648 24.2893 147.172 24.6495 145.847 25.3701C144.545 26.0673 143.511 27.0435 142.744 28.2986C142 29.5537 141.629 31.0064 141.629 32.6566ZM145.498 32.6566C145.498 31.6572 145.708 30.774 146.126 30.007C146.544 29.24 147.114 28.6473 147.834 28.2289C148.555 27.8105 149.368 27.6014 150.275 27.6014C151.181 27.6014 151.995 27.8105 152.715 28.2289C153.436 28.6473 154.005 29.24 154.424 30.007C154.842 30.774 155.051 31.6572 155.051 32.6566C155.051 33.6561 154.842 34.5393 154.424 35.3063C154.005 36.0501 153.436 36.6428 152.715 37.0844C151.995 37.5027 151.181 37.7119 150.275 37.7119C149.368 37.7119 148.555 37.5027 147.834 37.0844C147.114 36.6428 146.544 36.0501 146.126 35.3063C145.708 34.5393 145.498 33.6561 145.498 32.6566Z" fill="white"/>
<path d="M162.388 13.4814V40.6754H166.084V13.4814H162.388ZM171.976 24.6379L165.073 31.2621L172.708 40.6754H177.31L169.675 31.2621L176.613 24.6379H171.976Z" fill="white"/>
<path d="M187.802 24.6379L196.134 42.1397L204.432 24.6379H200.318L196.134 34.9925L191.95 24.6379H187.802Z" fill="white"/>
<path d="M215.305 28.1243L205.962 40.6754H220.953V37.189H212.655L221.825 24.6379H207.182V28.1243H215.305Z" fill="white"/>
<path d="M224.766 13.4814V40.6754H228.566V13.4814H224.766Z" fill="white"/>
<path d="M232.125 32.6566C232.125 34.2836 232.497 35.7363 233.241 37.0146C234.008 38.2697 235.042 39.2576 236.344 39.9781C237.668 40.6754 239.144 41.024 240.771 41.024C242.422 41.024 243.898 40.6754 245.199 39.9781C246.501 39.2576 247.523 38.2697 248.267 37.0146C249.034 35.7363 249.418 34.2836 249.418 32.6566C249.418 31.0064 249.034 29.5537 248.267 28.2986C247.523 27.0435 246.501 26.0673 245.199 25.3701C243.898 24.6495 242.422 24.2893 240.771 24.2893C239.144 24.2893 237.668 24.6495 236.344 25.3701C235.042 26.0673 234.008 27.0435 233.241 28.2986C232.497 29.5537 232.125 31.0064 232.125 32.6566ZM235.995 32.6566C235.995 31.6572 236.204 30.774 236.623 30.007C237.041 29.24 237.61 28.6473 238.331 28.2289C239.051 27.8105 239.865 27.6014 240.771 27.6014C241.678 27.6014 242.491 27.8105 243.212 28.2289C243.932 28.6473 244.502 29.24 244.92 30.007C245.339 30.774 245.548 31.6572 245.548 32.6566C245.548 33.6561 245.339 34.5393 244.92 35.3063C244.502 36.0501 243.932 36.6428 243.212 37.0844C242.491 37.5027 241.678 37.7119 240.771 37.7119C239.865 37.7119 239.051 37.5027 238.331 37.0844C237.61 36.6428 237.041 36.0501 236.623 35.3063C236.204 34.5393 235.995 33.6561 235.995 32.6566Z" fill="white"/>
<path d="M276 30.4602C276 29.1586 275.802 28.043 275.407 27.1133C275.035 26.1836 274.477 25.4863 273.734 25.0214C272.99 24.5333 272.037 24.2893 270.875 24.2893C269.806 24.2893 268.841 24.5333 267.981 25.0214C267.144 25.4863 266.435 26.1952 265.854 27.1481C265.506 26.2184 264.936 25.5095 264.146 25.0214C263.379 24.5333 262.414 24.2893 261.252 24.2893C260.206 24.2893 259.312 24.5217 258.568 24.9866C257.824 25.4282 257.208 26.0906 256.72 26.9738V24.6379H253.024V40.6754H256.72V30.9134C256.72 30.1464 256.848 29.4956 257.104 28.9611C257.382 28.4265 257.754 28.0197 258.219 27.7408C258.707 27.4619 259.265 27.3225 259.893 27.3225C260.822 27.3225 261.496 27.6246 261.915 28.2289C262.356 28.81 262.577 29.7048 262.577 30.9134V40.6754H266.342V30.9134C266.342 30.1464 266.47 29.4956 266.726 28.9611C267.005 28.4265 267.377 28.0197 267.842 27.7408C268.33 27.4619 268.899 27.3225 269.55 27.3225C270.456 27.3225 271.119 27.6246 271.537 28.2289C271.979 28.81 272.2 29.7048 272.2 30.9134V40.6754H276V30.4602Z" fill="white"/>
</svg>
