<svg width="26" height="25" viewBox="0 0 26 25" fill="none" xmlns="http://www.w3.org/2000/svg">
<path d="M16.773 0H9.09905C2.09614 0 0.436035 1.6601 0.436035 8.66301V16.337C0.436035 23.3399 2.09614 25 9.09905 25H16.773C23.7759 25 25.436 23.3399 25.436 16.337V8.66301C25.436 1.6601 23.7595 0 16.773 0ZM20.6182 17.8338H18.8034C18.116 17.8338 17.9042 17.2885 16.6676 16.0354C15.5934 14.9941 15.1176 14.8558 14.8528 14.8558C14.4786 14.8558 14.3723 14.9613 14.3723 15.4745V17.1143C14.3723 17.5541 14.234 17.8182 13.07 17.8182C11.1451 17.8182 9.0092 16.6542 7.5116 14.4855C5.25307 11.3075 4.63512 8.92706 4.63512 8.43489C4.63512 8.17006 4.74059 7.92241 5.24917 7.92241H7.06786C7.528 7.92241 7.703 8.13412 7.8819 8.62629C8.78109 11.2223 10.2787 13.4965 10.8966 13.4965C11.1248 13.4965 11.2302 13.391 11.2302 12.809V10.1278C11.1607 8.89113 10.5099 8.78488 10.5099 8.34583C10.5099 8.13412 10.6849 7.92241 10.9654 7.92241H13.8255C14.2122 7.92241 14.3544 8.13412 14.3544 8.58958V12.2067C14.3544 12.5973 14.5293 12.7355 14.6348 12.7355C14.8629 12.7355 15.0582 12.5973 15.4809 12.1738C16.7871 10.709 17.723 8.45052 17.723 8.45052C17.8449 8.18568 18.0566 7.93803 18.5167 7.93803H20.3354C20.8807 7.93803 21.0026 8.21849 20.8807 8.60911C20.6526 9.66689 18.4269 12.8082 18.4269 12.8082C18.2355 13.1254 18.162 13.2636 18.4269 13.6175C18.6222 13.8824 19.2573 14.4316 19.68 14.9238C20.4573 15.8065 21.0549 16.5471 21.2143 17.0596C21.3932 17.5682 21.1291 17.833 20.6159 17.833L20.6182 17.8338Z" fill="white"/>
</svg>
