<svg width="50" height="50" viewBox="0 0 50 50" fill="none" xmlns="http://www.w3.org/2000/svg">
<path d="M22.2065 3.63397C22.9402 2.14748 25.0598 2.14748 25.7935 3.63397L30.5881 13.3489C30.8794 13.9392 31.4425 14.3483 32.094 14.443L42.815 16.0009C44.4555 16.2392 45.1105 18.2552 43.9235 19.4122L36.1656 26.9743C35.6942 27.4337 35.4791 28.0957 35.5904 28.7445L37.4218 39.4223C37.702 41.0561 35.9872 42.302 34.5199 41.5306L24.9307 36.4893C24.348 36.183 23.652 36.183 23.0693 36.4893L13.4801 41.5306C12.0128 42.302 10.298 41.0561 10.5782 39.4223L12.4096 28.7445C12.5209 28.0957 12.3058 27.4337 11.8344 26.9743L4.07655 19.4122C2.88951 18.2552 3.54453 16.2392 5.18497 16.0009L15.906 14.443C16.5575 14.3483 17.1206 13.9392 17.4119 13.3489L22.2065 3.63397Z" fill="#5BCAD2"/>
<path d="M24.2065 5.63397C24.9402 4.14748 27.0598 4.14748 27.7935 5.63397L32.5881 15.3489C32.8794 15.9392 33.4425 16.3483 34.094 16.443L44.815 18.0009C46.4555 18.2392 47.1105 20.2552 45.9235 21.4122L38.1656 28.9743C37.6942 29.4337 37.4791 30.0957 37.5904 30.7445L39.4218 41.4223C39.702 43.0561 37.9872 44.302 36.5199 43.5306L26.9307 38.4893C26.348 38.183 25.652 38.183 25.0693 38.4893L15.4801 43.5306C14.0128 44.302 12.298 43.0561 12.5782 41.4223L14.4096 30.7445C14.5209 30.0957 14.3058 29.4337 13.8344 28.9743L6.07655 21.4122C4.88951 20.2552 5.54453 18.2392 7.18497 18.0009L17.906 16.443C18.5575 16.3483 19.1206 15.9392 19.4119 15.3489L24.2065 5.63397Z" fill="#E93745"/>
<mask id="mask0" mask-type="alpha" maskUnits="userSpaceOnUse" x="4" y="3" width="42" height="40">
<path d="M23.2065 4.63397C23.9402 3.14748 26.0598 3.14748 26.7935 4.63397L31.5881 14.3489C31.8794 14.9392 32.4425 15.3483 33.094 15.443L43.815 17.0009C45.4555 17.2392 46.1105 19.2552 44.9235 20.4122L37.1656 27.9743C36.6942 28.4337 36.4791 29.0957 36.5904 29.7445L38.4218 40.4223C38.702 42.0561 36.9872 43.302 35.5199 42.5306L25.9307 37.4893C25.348 37.183 24.652 37.183 24.0693 37.4893L14.4801 42.5306C13.0128 43.302 11.298 42.0561 11.5782 40.4223L13.4096 29.7445C13.5209 29.0957 13.3058 28.4337 12.8344 27.9743L5.07655 20.4122C3.88951 19.2552 4.54453 17.2392 6.18497 17.0009L16.906 15.443C17.5575 15.3483 18.1206 14.9392 18.4119 14.3489L23.2065 4.63397Z" fill="#5BCAD2"/>
</mask>
<g mask="url(#mask0)">
<path d="M23.2065 4.63397C23.9402 3.14748 26.0598 3.14748 26.7935 4.63397L31.5881 14.3489C31.8794 14.9392 32.4425 15.3483 33.094 15.443L43.815 17.0009C45.4555 17.2392 46.1105 19.2552 44.9235 20.4122L37.1656 27.9743C36.6942 28.4337 36.4791 29.0957 36.5904 29.7445L38.4218 40.4223C38.702 42.0561 36.9872 43.302 35.5199 42.5306L25.9307 37.4893C25.348 37.183 24.652 37.183 24.0693 37.4893L14.4801 42.5306C13.0128 43.302 11.298 42.0561 11.5782 40.4223L13.4096 29.7445C13.5209 29.0957 13.3058 28.4337 12.8344 27.9743L5.07655 20.4122C3.88951 19.2552 4.54453 17.2392 6.18497 17.0009L16.906 15.443C17.5575 15.3483 18.1206 14.9392 18.4119 14.3489L23.2065 4.63397Z" fill="white"/>
</g>
</svg>
