<svg width="44" height="44" viewBox="0 0 44 44" fill="none" xmlns="http://www.w3.org/2000/svg">
<path d="M20.3077 0L25.6639 14.9515L40.6154 20.3077L25.6639 25.6639L20.3077 40.6154L14.9515 25.6639L0 20.3077L14.9515 14.9515L20.3077 0Z" fill="#5BCAD2"/>
<path d="M23.6923 3.38452L29.0485 18.336L44 23.6922L29.0485 29.0484L23.6923 43.9999L18.3362 29.0484L3.38464 23.6922L18.3362 18.336L23.6923 3.38452Z" fill="#E93745"/>
<mask id="mask0" mask-type="alpha" maskUnits="userSpaceOnUse" x="0" y="0" width="41" height="41">
<path d="M20.3077 0L25.6639 14.9515L40.6154 20.3077L25.6639 25.6639L20.3077 40.6154L14.9515 25.6639L0 20.3077L14.9515 14.9515L20.3077 0Z" fill="#5BCAD2"/>
</mask>
<g mask="url(#mask0)">
<path d="M23.6923 3.38464L29.0485 18.3362L44 23.6923L29.0485 29.0485L23.6923 44L18.3362 29.0485L3.38464 23.6923L18.3362 18.3362L23.6923 3.38464Z" fill="white"/>
</g>
<path d="M38.5 2L39.9506 6.04937L44 7.5L39.9506 8.95063L38.5 13L37.0494 8.95063L33 7.5L37.0494 6.04937L38.5 2Z" fill="white"/>
</svg>
