<svg width="192" height="44" viewBox="0 0 192 44" fill="none" xmlns="http://www.w3.org/2000/svg">
<path d="M20.3077 0L25.6639 14.9515L40.6154 20.3077L25.6639 25.6639L20.3077 40.6154L14.9515 25.6639L0 20.3077L14.9515 14.9515L20.3077 0Z" fill="#5BCAD2"/>
<path d="M23.6923 3.38477L29.0485 18.3363L44 23.6925L29.0485 29.0486L23.6923 44.0001L18.3362 29.0486L3.38464 23.6925L18.3362 18.3363L23.6923 3.38477Z" fill="#E93745"/>
<mask id="mask0" mask-type="alpha" maskUnits="userSpaceOnUse" x="0" y="0" width="41" height="41">
<path d="M20.3077 0L25.6639 14.9515L40.6154 20.3077L25.6639 25.6639L20.3077 40.6154L14.9515 25.6639L0 20.3077L14.9515 14.9515L20.3077 0Z" fill="#5BCAD2"/>
</mask>
<g mask="url(#mask0)">
<path d="M23.6923 3.38477L29.0485 18.3363L44 23.6925L29.0485 29.0486L23.6923 44.0001L18.3362 29.0486L3.38464 23.6925L18.3362 18.3363L23.6923 3.38477Z" fill="white"/>
</g>
<path d="M38.5 2L39.9506 6.04937L44 7.5L39.9506 8.95063L38.5 13L37.0494 8.95063L33 7.5L37.0494 6.04937L38.5 2Z" fill="white"/>
<path d="M60.192 13.816H64.632V28H67.464V13.816H71.904V11.2H60.192V13.816ZM73.6538 12.568C73.6538 13 73.8138 13.376 74.1338 13.696C74.4698 14 74.8538 14.152 75.2858 14.152C75.7498 14.152 76.1418 14 76.4618 13.696C76.7818 13.376 76.9418 13 76.9418 12.568C76.9418 12.12 76.7818 11.744 76.4618 11.44C76.1418 11.136 75.7498 10.984 75.2858 10.984C74.8538 10.984 74.4698 11.136 74.1338 11.44C73.8138 11.744 73.6538 12.12 73.6538 12.568ZM74.0138 16.96V28H76.5818V16.96H74.0138ZM78.6122 16.96V19.24H84.8762V16.96H78.6122ZM80.4842 13.12V28H83.0282V13.12H80.4842ZM85.1278 23.464H90.0478V21.136H85.1278V23.464ZM90.2841 16.96V19.24H96.5481V16.96H90.2841ZM92.1561 13.12V28H94.7001V13.12H92.1561ZM97.4957 22.48C97.4957 23.6 97.7517 24.6 98.2637 25.48C98.7917 26.344 99.5037 27.024 100.4 27.52C101.312 28 102.328 28.24 103.448 28.24C104.584 28.24 105.6 28 106.496 27.52C107.392 27.024 108.096 26.344 108.608 25.48C109.136 24.6 109.4 23.6 109.4 22.48C109.4 21.344 109.136 20.344 108.608 19.48C108.096 18.616 107.392 17.944 106.496 17.464C105.6 16.968 104.584 16.72 103.448 16.72C102.328 16.72 101.312 16.968 100.4 17.464C99.5037 17.944 98.7917 18.616 98.2637 19.48C97.7517 20.344 97.4957 21.344 97.4957 22.48ZM100.16 22.48C100.16 21.792 100.304 21.184 100.592 20.656C100.88 20.128 101.272 19.72 101.768 19.432C102.264 19.144 102.824 19 103.448 19C104.072 19 104.632 19.144 105.128 19.432C105.624 19.72 106.016 20.128 106.304 20.656C106.592 21.184 106.736 21.792 106.736 22.48C106.736 23.168 106.592 23.776 106.304 24.304C106.016 24.816 105.624 25.224 105.128 25.528C104.632 25.816 104.072 25.96 103.448 25.96C102.824 25.96 102.264 25.816 101.768 25.528C101.272 25.224 100.88 24.816 100.592 24.304C100.304 23.776 100.16 23.168 100.16 22.48ZM111.787 9.28V28H114.331V9.28H111.787ZM118.387 16.96L113.635 21.52L118.891 28H122.059L116.803 21.52L121.579 16.96H118.387ZM129.281 16.96L135.017 29.008L140.729 16.96H137.897L135.017 24.088L132.137 16.96H129.281ZM148.214 19.36L141.782 28H152.102V25.6H146.39L152.702 16.96H142.622V19.36H148.214ZM154.726 9.28V28H157.342V9.28H154.726ZM159.793 22.48C159.793 23.6 160.049 24.6 160.561 25.48C161.089 26.344 161.801 27.024 162.697 27.52C163.609 28 164.625 28.24 165.745 28.24C166.881 28.24 167.897 28 168.793 27.52C169.689 27.024 170.393 26.344 170.905 25.48C171.433 24.6 171.697 23.6 171.697 22.48C171.697 21.344 171.433 20.344 170.905 19.48C170.393 18.616 169.689 17.944 168.793 17.464C167.897 16.968 166.881 16.72 165.745 16.72C164.625 16.72 163.609 16.968 162.697 17.464C161.801 17.944 161.089 18.616 160.561 19.48C160.049 20.344 159.793 21.344 159.793 22.48ZM162.457 22.48C162.457 21.792 162.601 21.184 162.889 20.656C163.177 20.128 163.569 19.72 164.065 19.432C164.561 19.144 165.121 19 165.745 19C166.369 19 166.929 19.144 167.425 19.432C167.921 19.72 168.313 20.128 168.601 20.656C168.889 21.184 169.033 21.792 169.033 22.48C169.033 23.168 168.889 23.776 168.601 24.304C168.313 24.816 167.921 25.224 167.425 25.528C166.929 25.816 166.369 25.96 165.745 25.96C165.121 25.96 164.561 25.816 164.065 25.528C163.569 25.224 163.177 24.816 162.889 24.304C162.601 23.776 162.457 23.168 162.457 22.48ZM189.995 20.968C189.995 20.072 189.859 19.304 189.587 18.664C189.331 18.024 188.947 17.544 188.435 17.224C187.923 16.888 187.267 16.72 186.467 16.72C185.731 16.72 185.067 16.888 184.475 17.224C183.899 17.544 183.411 18.032 183.011 18.688C182.771 18.048 182.379 17.56 181.835 17.224C181.307 16.888 180.643 16.72 179.843 16.72C179.123 16.72 178.507 16.88 177.995 17.2C177.483 17.504 177.059 17.96 176.723 18.568V16.96H174.179V28H176.723V21.28C176.723 20.752 176.811 20.304 176.987 19.936C177.179 19.568 177.435 19.288 177.755 19.096C178.091 18.904 178.475 18.808 178.907 18.808C179.547 18.808 180.011 19.016 180.299 19.432C180.603 19.832 180.755 20.448 180.755 21.28V28H183.347V21.28C183.347 20.752 183.435 20.304 183.611 19.936C183.803 19.568 184.059 19.288 184.379 19.096C184.715 18.904 185.107 18.808 185.555 18.808C186.179 18.808 186.635 19.016 186.923 19.432C187.227 19.832 187.379 20.448 187.379 21.28V28H189.995V20.968Z" fill="white"/>
</svg>
