<svg width="52" height="52" viewBox="0 0 52 52" fill="none" xmlns="http://www.w3.org/2000/svg">
<path d="M22.2065 3.63397C22.9402 2.14748 25.0598 2.14748 25.7935 3.63397L30.5881 13.3489C30.8794 13.9392 31.4425 14.3483 32.094 14.443L42.815 16.0009C44.4555 16.2392 45.1105 18.2552 43.9235 19.4122L36.1656 26.9743C35.6942 27.4337 35.4791 28.0957 35.5904 28.7445L37.4218 39.4223C37.702 41.0561 35.9872 42.302 34.5199 41.5306L24.9307 36.4893C24.348 36.183 23.652 36.183 23.0693 36.4893L13.4801 41.5306C12.0128 42.302 10.298 41.0561 10.5782 39.4223L12.4096 28.7445C12.5209 28.0957 12.3058 27.4337 11.8344 26.9743L4.07655 19.4122C2.88951 18.2552 3.54453 16.2392 5.18497 16.0009L15.906 14.443C16.5575 14.3483 17.1206 13.9392 17.4119 13.3489L22.2065 3.63397Z" fill="#5BCAD2"/>
<path d="M26.2065 7.63397C26.9402 6.14748 29.0598 6.14748 29.7935 7.63397L34.5881 17.3489C34.8794 17.9392 35.4425 18.3483 36.094 18.443L46.815 20.0009C48.4555 20.2392 49.1105 22.2552 47.9235 23.4122L40.1656 30.9743C39.6942 31.4337 39.4791 32.0957 39.5904 32.7445L41.4218 43.4223C41.702 45.0561 39.9872 46.302 38.5199 45.5306L28.9307 40.4893C28.348 40.183 27.652 40.183 27.0693 40.4893L17.4801 45.5306C16.0128 46.302 14.298 45.0561 14.5782 43.4223L16.4096 32.7445C16.5209 32.0957 16.3058 31.4337 15.8344 30.9743L8.07655 23.4122C6.88951 22.2552 7.54453 20.2392 9.18497 20.0009L19.906 18.443C20.5575 18.3483 21.1206 17.9392 21.4119 17.3489L26.2065 7.63397Z" fill="#E93745"/>
<mask id="mask0" mask-type="alpha" maskUnits="userSpaceOnUse" x="3" y="2" width="42" height="40">
<path d="M22.2065 3.63397C22.9402 2.14748 25.0598 2.14748 25.7935 3.63397L30.5881 13.3489C30.8794 13.9392 31.4425 14.3483 32.094 14.443L42.815 16.0009C44.4555 16.2392 45.1105 18.2552 43.9235 19.4122L36.1656 26.9743C35.6942 27.4337 35.4791 28.0957 35.5904 28.7445L37.4218 39.4223C37.702 41.0561 35.9872 42.302 34.5199 41.5306L24.9307 36.4893C24.348 36.183 23.652 36.183 23.0693 36.4893L13.4801 41.5306C12.0128 42.302 10.298 41.0561 10.5782 39.4223L12.4096 28.7445C12.5209 28.0957 12.3058 27.4337 11.8344 26.9743L4.07655 19.4122C2.88951 18.2552 3.54453 16.2392 5.18497 16.0009L15.906 14.443C16.5575 14.3483 17.1206 13.9392 17.4119 13.3489L22.2065 3.63397Z" fill="#5BCAD2"/>
</mask>
<g mask="url(#mask0)">
<path d="M26.2065 7.63397C26.9402 6.14748 29.0598 6.14748 29.7935 7.63397L34.5881 17.3489C34.8794 17.9392 35.4425 18.3483 36.094 18.443L46.815 20.0009C48.4555 20.2392 49.1105 22.2552 47.9235 23.4122L40.1656 30.9743C39.6942 31.4337 39.4791 32.0957 39.5904 32.7445L41.4218 43.4223C41.702 45.0561 39.9872 46.302 38.5199 45.5306L28.9307 40.4893C28.348 40.183 27.652 40.183 27.0693 40.4893L17.4801 45.5306C16.0128 46.302 14.298 45.0561 14.5782 43.4223L16.4096 32.7445C16.5209 32.0957 16.3058 31.4337 15.8344 30.9743L8.07655 23.4122C6.88951 22.2552 7.54453 20.2392 9.18497 20.0009L19.906 18.443C20.5575 18.3483 21.1206 17.9392 21.4119 17.3489L26.2065 7.63397Z" fill="#060F23"/>
</g>
</svg>
