 <svg xmlns="http://www.w3.org/2000/svg">

   <symbol id="insta" viewBox="0 0 26 25">
     <g>
       <path
         d="M13.37 0C9.97244 0 9.54902 0.0164057 8.21937 0.072654C6.88426 0.138277 5.98116 0.345302 5.18431 0.654667C4.35033 0.969517 3.59504 1.46247 2.9711 2.09915C2.33264 2.72163 1.83942 3.47734 1.52662 4.31237C1.21725 5.10922 1.01023 6.01231 0.944602 7.34743C0.884448 8.67785 0.871948 9.1005 0.871948 12.498C0.871948 15.8956 0.888354 16.319 0.944602 17.6487C1.01023 18.9799 1.21725 19.8869 1.52662 20.6837C1.84147 21.5177 2.33441 22.273 2.9711 22.8969C3.59358 23.5354 4.34929 24.0286 5.18431 24.3414C5.98116 24.6469 6.88817 24.8578 8.21937 24.9234C9.5498 24.9836 9.97244 24.9961 13.37 24.9961C16.7675 24.9961 17.191 24.9797 18.5206 24.9234C19.8518 24.8578 20.7588 24.6461 21.5557 24.3414C22.3897 24.0266 23.145 23.5336 23.7689 22.8969C24.4082 22.2751 24.9015 21.5192 25.2134 20.6837C25.5188 19.8869 25.7298 18.9799 25.7954 17.6487C25.8555 16.3182 25.868 15.8956 25.868 12.498C25.868 9.1005 25.8516 8.67707 25.7954 7.34743C25.7298 6.01622 25.5181 5.10453 25.2134 4.31237C24.8985 3.47838 24.4056 2.72309 23.7689 2.09915C23.1471 1.45987 22.3912 0.966516 21.5557 0.654667C20.7588 0.345302 19.8518 0.138277 18.5206 0.072654C17.1902 0.0124996 16.7675 0 13.37 0ZM13.37 2.24993C16.7066 2.24993 17.105 2.26634 18.4237 2.32258C19.6401 2.37961 20.3026 2.58273 20.7424 2.7546C21.2862 2.95532 21.7783 3.27478 22.183 3.68973C22.5972 4.09271 22.9155 4.58372 23.1142 5.1264C23.2861 5.56623 23.4892 6.22871 23.5462 7.44508C23.6025 8.76379 23.6189 9.16299 23.6189 12.4988C23.6189 15.8347 23.6025 16.2339 23.5416 17.5526C23.4759 18.7689 23.2728 19.4314 23.1017 19.8713C22.865 20.458 22.601 20.8681 22.165 21.3118C21.759 21.7242 21.2672 22.0421 20.7245 22.2431C20.2901 22.4149 19.6182 22.618 18.3972 22.6751C17.0714 22.7313 16.6808 22.7477 13.3356 22.7477C9.99041 22.7477 9.60058 22.7313 8.27328 22.6704C7.05691 22.6048 6.38584 22.4016 5.94601 22.2306C5.35228 21.9938 4.94526 21.7298 4.50933 21.2939C4.0695 20.854 3.78983 20.4353 3.57421 19.8533C3.39921 19.4189 3.19922 18.7471 3.13438 17.526C3.08985 16.2159 3.06875 15.8097 3.06875 12.4801C3.06875 9.15206 3.08985 8.74504 3.13438 7.41852C3.19922 6.19746 3.39921 5.52717 3.57421 5.09125C3.78983 4.49673 4.07029 4.0905 4.50933 3.65067C4.94448 3.21552 5.35228 2.93428 5.94601 2.71398C6.38584 2.54289 7.04051 2.33977 8.26156 2.27884C9.5873 2.23118 9.97791 2.21399 13.3184 2.21399L13.37 2.24993ZM13.37 6.0834C12.5273 6.0831 11.6928 6.24885 10.9143 6.57118C10.1357 6.89352 9.42823 7.36612 8.83237 7.96198C8.23651 8.55784 7.7639 9.26528 7.44157 10.0439C7.11923 10.8225 6.95348 11.6569 6.95379 12.4996C6.95348 13.3423 7.11923 14.1768 7.44157 14.9553C7.7639 15.7339 8.23651 16.4414 8.83237 17.0372C9.42823 17.6331 10.1357 18.1057 10.9143 18.428C11.6928 18.7504 12.5273 18.9161 13.37 18.9158C14.2127 18.9161 15.0471 18.7504 15.8257 18.428C16.6043 18.1057 17.3118 17.6331 17.9076 17.0372C18.5035 16.4414 18.9761 15.7339 19.2984 14.9553C19.6208 14.1768 19.7865 13.3423 19.7862 12.4996C19.7865 11.6569 19.6208 10.8225 19.2984 10.0439C18.9761 9.26528 18.5035 8.55784 17.9076 7.96198C17.3118 7.36612 16.6043 6.89352 15.8257 6.57118C15.0471 6.24885 14.2127 6.0831 13.37 6.0834ZM13.37 16.6659C11.0669 16.6659 9.20372 14.8027 9.20372 12.4996C9.20372 10.1966 11.0669 8.33333 13.37 8.33333C15.673 8.33333 17.5363 10.1966 17.5363 12.4996C17.5363 14.8027 15.673 16.6659 13.37 16.6659ZM21.5447 5.82716C21.5443 6.22532 21.3859 6.60704 21.1042 6.88844C20.8225 7.16983 20.4406 7.3279 20.0424 7.3279C19.8456 7.3279 19.6506 7.28912 19.4687 7.21378C19.2868 7.13844 19.1216 7.02801 18.9824 6.8888C18.8432 6.74959 18.7327 6.58432 18.6574 6.40243C18.582 6.22054 18.5433 6.0256 18.5433 5.82872C18.5433 5.63185 18.582 5.4369 18.6574 5.25502C18.7327 5.07313 18.8432 4.90786 18.9824 4.76865C19.1216 4.62944 19.2868 4.51901 19.4687 4.44367C19.6506 4.36833 19.8456 4.32955 20.0424 4.32955C20.8682 4.32955 21.5447 5.00141 21.5447 5.82716Z" />
     </g>
   </symbol>

   <symbol id="vk" viewBox="0 0 26 25">
     <g>
       <path
         d="M16.773 0H9.09905C2.09614 0 0.436035 1.6601 0.436035 8.66301V16.337C0.436035 23.3399 2.09614 25 9.09905 25H16.773C23.7759 25 25.436 23.3399 25.436 16.337V8.66301C25.436 1.6601 23.7595 0 16.773 0ZM20.6182 17.8338H18.8034C18.116 17.8338 17.9042 17.2885 16.6676 16.0354C15.5934 14.9941 15.1176 14.8558 14.8528 14.8558C14.4786 14.8558 14.3723 14.9613 14.3723 15.4745V17.1143C14.3723 17.5541 14.234 17.8182 13.07 17.8182C11.1451 17.8182 9.0092 16.6542 7.5116 14.4855C5.25307 11.3075 4.63512 8.92706 4.63512 8.43489C4.63512 8.17006 4.74059 7.92241 5.24917 7.92241H7.06786C7.528 7.92241 7.703 8.13412 7.8819 8.62629C8.78109 11.2223 10.2787 13.4965 10.8966 13.4965C11.1248 13.4965 11.2302 13.391 11.2302 12.809V10.1278C11.1607 8.89113 10.5099 8.78488 10.5099 8.34583C10.5099 8.13412 10.6849 7.92241 10.9654 7.92241H13.8255C14.2122 7.92241 14.3544 8.13412 14.3544 8.58958V12.2067C14.3544 12.5973 14.5293 12.7355 14.6348 12.7355C14.8629 12.7355 15.0582 12.5973 15.4809 12.1738C16.7871 10.709 17.723 8.45052 17.723 8.45052C17.8449 8.18568 18.0566 7.93803 18.5167 7.93803H20.3354C20.8807 7.93803 21.0026 8.21849 20.8807 8.60911C20.6526 9.66689 18.4269 12.8082 18.4269 12.8082C18.2355 13.1254 18.162 13.2636 18.4269 13.6175C18.6222 13.8824 19.2573 14.4316 19.68 14.9238C20.4573 15.8065 21.0549 16.5471 21.2143 17.0596C21.3932 17.5682 21.1291 17.833 20.6159 17.833L20.6182 17.8338Z" />
     </g>
   </symbol>

   <symbol id="fb" viewBox="0 0 25 25">
     <g>
       <path
         d="M4.5647 0C2.03606 0 0 2.03606 0 4.5647V20.4345C0 22.9631 2.03606 24.9992 4.5647 24.9992H13.166V15.2261H10.5817V11.7074H13.166V8.70129C13.166 6.33949 14.6929 4.17096 18.2103 4.17096C19.6345 4.17096 20.6876 4.30768 20.6876 4.30768L20.6048 7.59352C20.6048 7.59352 19.5308 7.58337 18.3588 7.58337C17.0903 7.58337 16.8869 8.1678 16.8869 9.13802V11.7075H20.7056L20.5392 15.2261H16.8869V24.9992H20.4345C22.9631 24.9992 24.9992 22.9632 24.9992 20.4345V4.56472C24.9992 2.03608 22.9631 2.49992e-05 20.4345 2.49992e-05H4.56467L4.5647 0Z" />
     </g>
   </symbol>

   <symbol id="geo" viewBox="0 0 12 16">
     <g>
       <path
         d="M5.38338 15.6772C0.842813 9.09472 0 8.41916 0 6C0 2.68628 2.68628 0 6 0C9.31372 0 12 2.68628 12 6C12 8.41916 11.1572 9.09472 6.61662 15.6772C6.31866 16.1076 5.68131 16.1076 5.38338 15.6772ZM6 8.5C7.38072 8.5 8.5 7.38072 8.5 6C8.5 4.61928 7.38072 3.5 6 3.5C4.61928 3.5 3.5 4.61928 3.5 6C3.5 7.38072 4.61928 8.5 6 8.5Z" />
     </g>
   </symbol>

   <symbol id="phone" width="16" height="16" viewBox="0 0 16 16">
     <g>
       <path
         d="M0.581291 0.769088L3.83129 0.0190879C4.18442 -0.0621621 4.54692 0.122213 4.69067 0.453463L6.19067 3.95346C6.32192 4.25971 6.23442 4.61909 5.97504 4.82846L4.08129 6.37846C5.20629 8.77534 7.17192 10.7691 9.61879 11.916L11.1688 10.0222C11.3813 9.76284 11.7375 9.67534 12.0438 9.80659L15.5438 11.3066C15.8782 11.4535 16.0625 11.816 15.9813 12.1691L15.2313 15.4191C15.1532 15.7566 14.8532 16.0003 14.5 16.0003C6.49692 16.0003 4.00543e-05 9.51596 4.00543e-05 1.50034C4.00543e-05 1.15034 0.240666 0.847213 0.581291 0.769088Z" />
     </g>
   </symbol>
 
   <symbol id="template" width="0" height="0" viewbox="0 0 0 0">
     <g>
       <path
         d="M 23 12.3 C 23 6.1 18.1 1 12 1 C 5.9 1 1 6.1 1 12.3 V 27.7 C 1 33.9 5.9 39 12 39 C 18.1 39 23 33.9 23 27.7 V 12.3 Z"
         stroke="white" stroke-width="2" />
       <path d="M 11 10 H 13 V 18 H 11 V 10 Z" />
     </g>
   </symbol>

 </svg>