 <svg xmlns="http://www.w3.org/2000/svg">

   <symbol id="insta" viewBox="0 0 26 25">
     <g>
       <path
         d="M13.37 0C9.97244 0 9.54902 0.0164057 8.21937 0.072654C6.88426 0.138277 5.98116 0.345302 5.18431 0.654667C4.35033 0.969517 3.59504 1.46247 2.9711 2.09915C2.33264 2.72163 1.83942 3.47734 1.52662 4.31237C1.21725 5.10922 1.01023 6.01231 0.944602 7.34743C0.884448 8.67785 0.871948 9.1005 0.871948 12.498C0.871948 15.8956 0.888354 16.319 0.944602 17.6487C1.01023 18.9799 1.21725 19.8869 1.52662 20.6837C1.84147 21.5177 2.33441 22.273 2.9711 22.8969C3.59358 23.5354 4.34929 24.0286 5.18431 24.3414C5.98116 24.6469 6.88817 24.8578 8.21937 24.9234C9.5498 24.9836 9.97244 24.9961 13.37 24.9961C16.7675 24.9961 17.191 24.9797 18.5206 24.9234C19.8518 24.8578 20.7588 24.6461 21.5557 24.3414C22.3897 24.0266 23.145 23.5336 23.7689 22.8969C24.4082 22.2751 24.9015 21.5192 25.2134 20.6837C25.5188 19.8869 25.7298 18.9799 25.7954 17.6487C25.8555 16.3182 25.868 15.8956 25.868 12.498C25.868 9.1005 25.8516 8.67707 25.7954 7.34743C25.7298 6.01622 25.5181 5.10453 25.2134 4.31237C24.8985 3.47838 24.4056 2.72309 23.7689 2.09915C23.1471 1.45987 22.3912 0.966516 21.5557 0.654667C20.7588 0.345302 19.8518 0.138277 18.5206 0.072654C17.1902 0.0124996 16.7675 0 13.37 0ZM13.37 2.24993C16.7066 2.24993 17.105 2.26634 18.4237 2.32258C19.6401 2.37961 20.3026 2.58273 20.7424 2.7546C21.2862 2.95532 21.7783 3.27478 22.183 3.68973C22.5972 4.09271 22.9155 4.58372 23.1142 5.1264C23.2861 5.56623 23.4892 6.22871 23.5462 7.44508C23.6025 8.76379 23.6189 9.16299 23.6189 12.4988C23.6189 15.8347 23.6025 16.2339 23.5416 17.5526C23.4759 18.7689 23.2728 19.4314 23.1017 19.8713C22.865 20.458 22.601 20.8681 22.165 21.3118C21.759 21.7242 21.2672 22.0421 20.7245 22.2431C20.2901 22.4149 19.6182 22.618 18.3972 22.6751C17.0714 22.7313 16.6808 22.7477 13.3356 22.7477C9.99041 22.7477 9.60058 22.7313 8.27328 22.6704C7.05691 22.6048 6.38584 22.4016 5.94601 22.2306C5.35228 21.9938 4.94526 21.7298 4.50933 21.2939C4.0695 20.854 3.78983 20.4353 3.57421 19.8533C3.39921 19.4189 3.19922 18.7471 3.13438 17.526C3.08985 16.2159 3.06875 15.8097 3.06875 12.4801C3.06875 9.15206 3.08985 8.74504 3.13438 7.41852C3.19922 6.19746 3.39921 5.52717 3.57421 5.09125C3.78983 4.49673 4.07029 4.0905 4.50933 3.65067C4.94448 3.21552 5.35228 2.93428 5.94601 2.71398C6.38584 2.54289 7.04051 2.33977 8.26156 2.27884C9.5873 2.23118 9.97791 2.21399 13.3184 2.21399L13.37 2.24993ZM13.37 6.0834C12.5273 6.0831 11.6928 6.24885 10.9143 6.57118C10.1357 6.89352 9.42823 7.36612 8.83237 7.96198C8.23651 8.55784 7.7639 9.26528 7.44157 10.0439C7.11923 10.8225 6.95348 11.6569 6.95379 12.4996C6.95348 13.3423 7.11923 14.1768 7.44157 14.9553C7.7639 15.7339 8.23651 16.4414 8.83237 17.0372C9.42823 17.6331 10.1357 18.1057 10.9143 18.428C11.6928 18.7504 12.5273 18.9161 13.37 18.9158C14.2127 18.9161 15.0471 18.7504 15.8257 18.428C16.6043 18.1057 17.3118 17.6331 17.9076 17.0372C18.5035 16.4414 18.9761 15.7339 19.2984 14.9553C19.6208 14.1768 19.7865 13.3423 19.7862 12.4996C19.7865 11.6569 19.6208 10.8225 19.2984 10.0439C18.9761 9.26528 18.5035 8.55784 17.9076 7.96198C17.3118 7.36612 16.6043 6.89352 15.8257 6.57118C15.0471 6.24885 14.2127 6.0831 13.37 6.0834ZM13.37 16.6659C11.0669 16.6659 9.20372 14.8027 9.20372 12.4996C9.20372 10.1966 11.0669 8.33333 13.37 8.33333C15.673 8.33333 17.5363 10.1966 17.5363 12.4996C17.5363 14.8027 15.673 16.6659 13.37 16.6659ZM21.5447 5.82716C21.5443 6.22532 21.3859 6.60704 21.1042 6.88844C20.8225 7.16983 20.4406 7.3279 20.0424 7.3279C19.8456 7.3279 19.6506 7.28912 19.4687 7.21378C19.2868 7.13844 19.1216 7.02801 18.9824 6.8888C18.8432 6.74959 18.7327 6.58432 18.6574 6.40243C18.582 6.22054 18.5433 6.0256 18.5433 5.82872C18.5433 5.63185 18.582 5.4369 18.6574 5.25502C18.7327 5.07313 18.8432 4.90786 18.9824 4.76865C19.1216 4.62944 19.2868 4.51901 19.4687 4.44367C19.6506 4.36833 19.8456 4.32955 20.0424 4.32955C20.8682 4.32955 21.5447 5.00141 21.5447 5.82716Z" />
     </g>
   </symbol>

   <symbol id="vk" viewBox="0 0 26 25">
     <g>
       <path
         d="M16.773 0H9.09905C2.09614 0 0.436035 1.6601 0.436035 8.66301V16.337C0.436035 23.3399 2.09614 25 9.09905 25H16.773C23.7759 25 25.436 23.3399 25.436 16.337V8.66301C25.436 1.6601 23.7595 0 16.773 0ZM20.6182 17.8338H18.8034C18.116 17.8338 17.9042 17.2885 16.6676 16.0354C15.5934 14.9941 15.1176 14.8558 14.8528 14.8558C14.4786 14.8558 14.3723 14.9613 14.3723 15.4745V17.1143C14.3723 17.5541 14.234 17.8182 13.07 17.8182C11.1451 17.8182 9.0092 16.6542 7.5116 14.4855C5.25307 11.3075 4.63512 8.92706 4.63512 8.43489C4.63512 8.17006 4.74059 7.92241 5.24917 7.92241H7.06786C7.528 7.92241 7.703 8.13412 7.8819 8.62629C8.78109 11.2223 10.2787 13.4965 10.8966 13.4965C11.1248 13.4965 11.2302 13.391 11.2302 12.809V10.1278C11.1607 8.89113 10.5099 8.78488 10.5099 8.34583C10.5099 8.13412 10.6849 7.92241 10.9654 7.92241H13.8255C14.2122 7.92241 14.3544 8.13412 14.3544 8.58958V12.2067C14.3544 12.5973 14.5293 12.7355 14.6348 12.7355C14.8629 12.7355 15.0582 12.5973 15.4809 12.1738C16.7871 10.709 17.723 8.45052 17.723 8.45052C17.8449 8.18568 18.0566 7.93803 18.5167 7.93803H20.3354C20.8807 7.93803 21.0026 8.21849 20.8807 8.60911C20.6526 9.66689 18.4269 12.8082 18.4269 12.8082C18.2355 13.1254 18.162 13.2636 18.4269 13.6175C18.6222 13.8824 19.2573 14.4316 19.68 14.9238C20.4573 15.8065 21.0549 16.5471 21.2143 17.0596C21.3932 17.5682 21.1291 17.833 20.6159 17.833L20.6182 17.8338Z" />
     </g>
   </symbol>

   <symbol id="fb" viewBox="0 0 25 25">
     <g>
       <path
         d="M4.5647 0C2.03606 0 0 2.03606 0 4.5647V20.4345C0 22.9631 2.03606 24.9992 4.5647 24.9992H13.166V15.2261H10.5817V11.7074H13.166V8.70129C13.166 6.33949 14.6929 4.17096 18.2103 4.17096C19.6345 4.17096 20.6876 4.30768 20.6876 4.30768L20.6048 7.59352C20.6048 7.59352 19.5308 7.58337 18.3588 7.58337C17.0903 7.58337 16.8869 8.1678 16.8869 9.13802V11.7075H20.7056L20.5392 15.2261H16.8869V24.9992H20.4345C22.9631 24.9992 24.9992 22.9632 24.9992 20.4345V4.56472C24.9992 2.03608 22.9631 2.49992e-05 20.4345 2.49992e-05H4.56467L4.5647 0Z" />
     </g>
   </symbol>

   <symbol id="geo" viewBox="0 0 12 16">
     <g>
       <path
         d="M5.38338 15.6772C0.842813 9.09472 0 8.41916 0 6C0 2.68628 2.68628 0 6 0C9.31372 0 12 2.68628 12 6C12 8.41916 11.1572 9.09472 6.61662 15.6772C6.31866 16.1076 5.68131 16.1076 5.38338 15.6772ZM6 8.5C7.38072 8.5 8.5 7.38072 8.5 6C8.5 4.61928 7.38072 3.5 6 3.5C4.61928 3.5 3.5 4.61928 3.5 6C3.5 7.38072 4.61928 8.5 6 8.5Z" />
     </g>
   </symbol>

   <symbol id="phone" width="16" height="16" viewBox="0 0 16 16">
     <g>
       <path
         d="M0.581291 0.769088L3.83129 0.0190879C4.18442 -0.0621621 4.54692 0.122213 4.69067 0.453463L6.19067 3.95346C6.32192 4.25971 6.23442 4.61909 5.97504 4.82846L4.08129 6.37846C5.20629 8.77534 7.17192 10.7691 9.61879 11.916L11.1688 10.0222C11.3813 9.76284 11.7375 9.67534 12.0438 9.80659L15.5438 11.3066C15.8782 11.4535 16.0625 11.816 15.9813 12.1691L15.2313 15.4191C15.1532 15.7566 14.8532 16.0003 14.5 16.0003C6.49692 16.0003 4.00543e-05 9.51596 4.00543e-05 1.50034C4.00543e-05 1.15034 0.240666 0.847213 0.581291 0.769088Z" />
     </g>
   </symbol>

   <symbol id="icon-plus" viewBox="0 0 18 18">
     <g>
       <path d="M9 1V17" stroke-width="1.5" stroke-linecap="round" stroke-linejoin="round" />
       <path d="M1 9H17" stroke-width="1.5" stroke-linecap="round" stroke-linejoin="round" />
     </g>
   </symbol>



   <symbol id="icon-arrow" viewBox="0 0 16 12">
     <g>
       <path d="M1 6H15L10.5 11" stroke-width="1.5" stroke-linecap="round" stroke-linejoin="round" />
       <path d="M1 6H15L10.5 1" stroke-width="1.5" stroke-linecap="round" stroke-linejoin="round" />
     </g>
   </symbol>



   <symbol id="icon-load" viewBox="0 0 16 16">
     <g>
       <path d="M13.5286 6.41211L14.394 4" stroke-width="1.5" stroke-linecap="round" stroke-linejoin="round" />
       <path d="M13.5286 6.4121L11 5.99585" stroke-width="1.5" stroke-linecap="round" stroke-linejoin="round" />
       <path
         d="M13.4415 5.5216C12.9343 4.38357 12.0602 3.39858 10.878 2.76277C8.04112 1.23693 4.50434 2.29981 2.97851 5.13677C2.61737 5.80824 2.40124 6.51891 2.31934 7.23286"
         stroke-width="1.5" stroke-linecap="round" stroke-linejoin="round" />
       <path d="M2.86541 10L2 12.4121" stroke-width="1.5" stroke-linecap="round" stroke-linejoin="round" />
       <path d="M2.86536 10L5.39398 10.4163" stroke-width="1.5" stroke-linecap="round" stroke-linejoin="round" />
       <path
         d="M2.8927 10.4784C3.39982 11.6164 4.27393 12.6014 5.4561 13.2372C8.29303 14.763 11.8298 13.7002 13.3556 10.8632C13.7168 10.1917 13.9329 9.48102 14.0148 8.76709"
         stroke-width="1.5" stroke-linecap="round" stroke-linejoin="round" />
     </g>
   </symbol>


   <symbol id="mastercard" viewBox="0 0 43 28">
     <g>
       <path d="M27.2058 3.62012H15.7227V24.251H27.2058V3.62012Z" fill="#EB611D" />
       <path
         d="M16.4545 13.9324C16.4545 9.74599 18.4132 6.02231 21.4696 3.61161C19.2311 1.8574 16.4222 0.813477 13.355 0.813477C6.11217 0.813477 0.236084 6.68956 0.236084 13.9324C0.236084 21.1861 6.11217 27.0514 13.355 27.0514C16.4115 27.0514 19.2311 26.0075 21.4589 24.2425C18.4132 21.8533 16.4545 18.1296 16.4545 13.9324Z"
         fill="#E41322" />
       <path
         d="M42.7057 13.9295C42.7057 21.1831 36.8296 27.0485 29.5868 27.0485C26.5303 27.0485 23.7107 26.0045 21.4722 24.2396C24.5286 21.8396 26.4873 18.1052 26.4873 13.9187C26.4873 9.7323 24.5286 6.00862 21.4722 3.59792C23.6999 1.85447 26.5196 0.810547 29.576 0.810547C36.8296 0.810547 42.7057 6.68663 42.7057 13.9295Z"
         fill="#F59E21" />
     </g>
   </symbol>


   <symbol id="visa" viewBox="0 0 77 25">
     <g>
       <path
         d="M33.3935 25.1995H27.1105L31.0373 1.04777H37.321L33.3935 25.1995ZM21.8247 1.04777L15.8348 17.6595L15.126 14.0823L15.1267 14.0837L13.0125 3.22236C13.0125 3.22236 12.7569 1.04777 10.032 1.04777H0.129473L0.0132751 1.45671C0.0132751 1.45671 3.0415 2.08726 6.58552 4.21726L12.0442 25.2002H18.5907L28.5868 1.04777H21.8247ZM71.2441 25.1995H77.0132L71.9832 1.04712H66.9325C64.6002 1.04712 64.0321 2.84701 64.0321 2.84701L54.6615 25.1995H61.2111L62.5209 21.612H70.5082L71.2441 25.1995ZM64.3303 16.6562L67.6316 7.61805L69.4888 16.6562H64.3303ZM55.1527 6.85571L56.0494 1.66926C56.0494 1.66926 53.2826 0.616211 50.3984 0.616211C47.2804 0.616211 39.876 1.98001 39.876 8.61167C39.876 14.8512 48.5663 14.9287 48.5663 18.2061C48.5663 21.4834 40.7713 20.8962 38.1989 18.8295L37.2648 24.2524C37.2648 24.2524 40.0703 25.6162 44.3567 25.6162C48.6443 25.6162 55.1127 23.3944 55.1127 17.3475C55.1127 11.0679 46.3443 10.4833 46.3443 7.75307C46.345 5.02224 52.4641 5.37304 55.1527 6.85571Z"
         fill="#2566AF" />
       <path
         d="M15.1267 14.0828L13.0125 3.22146C13.0125 3.22146 12.7569 1.04688 10.032 1.04688H0.129473L0.0132751 1.45582C0.0132751 1.45582 4.77284 2.44298 9.3381 6.14158C13.7032 9.67676 15.1267 14.0828 15.1267 14.0828Z"
         fill="#E6A540" />
     </g>
   </symbol>


   <symbol id="sberbank" viewBox="0 0 31 30">
     <g>
       <path
         d="M28.479 5.45562C28.1412 5.02233 27.807 4.58905 27.5128 4.15234L9.44821 13.8826L0.730135 9.18805C0.530044 9.69464 0.407734 10.2253 0.366882 10.7642L9.53538 15.7488L28.479 5.45562Z"
         fill="#2F9A41" />
       <path
         d="M9.4482 17.5502L0.087136 12.5008C0.0178377 12.8114 -0.0102254 13.1288 0.00358816 13.4459C0.00358816 17.3064 1.63643 21.0088 4.54291 23.7386C7.44936 26.4684 11.3914 28.002 15.5018 28.002C19.6121 28.002 23.5542 26.4684 26.4606 23.7386C29.3671 21.0088 31 17.3064 31 13.4459C31.0173 11.1426 30.4415 8.86951 29.3217 6.82031L9.4482 17.5502Z"
         fill="#2F9A41" />
       <path
         d="M26.2523 2.91692C25.8109 2.52564 25.3477 2.15665 24.8647 1.81152L9.44825 10.2146L2.0197 6.22971C1.76906 6.66299 1.51478 7.1372 1.22055 7.64897L9.36832 12.0842L26.2523 2.91692Z"
         fill="#2F9A41" />
       <path
         d="M23.3535 0.866579C22.7701 0.538591 22.1633 0.249036 21.5372 0L9.44818 6.53686L4.03571 3.6676C3.64858 4.05539 3.28476 4.46316 2.94595 4.889L9.41187 8.36213L23.3535 0.866579Z"
         fill="#2F9A41" />
     </g>
   </symbol>


   <symbol id="yandex" viewBox="0 0 30 33">
     <g>
       <path d="M0 15.675C0 13.8525 1.53502 12.375 3.42857 12.375H30V33H3.42857C1.53502 33 0 31.5225 0 29.7V15.675Z"
         fill="#EFBE0F" />
       <path d="M24.4285 12.375V22.275L4.71426 30.1125L20.5714 19.8V12.375H24.4285Z" fill="black" fill-opacity="0.2" />
       <path d="M20.5714 0V20.0713L4.25276 30.525L1.71429 12.8122L20.5714 0Z" fill="#EFBE0F" />
       <path
         d="M13.2122 15.0998C13.8817 15.7442 15.1706 15.5483 16.0912 14.6623C17.0117 13.7763 17.2152 12.5357 16.5457 11.8913C15.8763 11.247 14.5873 11.4429 13.6668 12.3289C12.7463 13.2149 12.5428 14.4555 13.2122 15.0998Z"
         fill="black" />
     </g>
   </symbol>


   <symbol id="qiwi" viewBox="0 0 73 30">
     <g>
       <path
         d="M29.8159 29.6314C29.6769 29.2654 29.4249 29.0159 29.2425 28.6914C28.7995 28.134 28.2783 27.6515 27.7571 27.169C27.5747 27.1108 27.4965 26.9444 27.3228 26.8779C27.2098 26.7365 27.0274 26.6616 26.8798 26.5534C26.5844 26.3371 26.263 26.1542 25.9329 25.9711C25.3075 25.5884 24.5344 25.3472 23.7699 25.0976C22.9447 24.9063 22.076 24.7649 21.1726 24.6485C20.2779 24.5237 19.3831 24.4072 18.7056 24.0661C18.3147 23.9579 18.0281 23.75 17.6892 23.5836C17.3766 23.3839 17.0378 23.2176 16.7772 22.968C16.4558 22.785 16.256 22.4772 16.004 22.2276C15.9172 22.0613 15.7695 21.9614 15.7 21.7784C15.6132 21.7451 15.5871 21.6453 15.535 21.5871C15.4742 21.5205 15.4742 21.3874 15.3699 21.3625C15.3178 21.7036 15.3352 22.1112 15.3699 22.4605C15.4133 22.6103 15.4307 22.7933 15.4742 22.943C15.5002 23.0762 15.6306 23.2924 15.5784 23.3923C12.8682 23.2591 10.8876 22.4356 9.16765 21.3542C8.31635 20.8134 7.58669 20.1562 6.90912 19.4492C6.61378 19.0582 6.29237 18.6838 6.03177 18.2512C5.76249 17.827 5.53663 17.3444 5.29341 16.8953C4.89382 15.9219 4.52029 14.9236 4.38131 13.7008C4.19889 12.5612 4.24232 11.1053 4.51161 10.0488C4.60716 9.4665 4.80696 8.9757 4.98069 8.46825C5.09361 8.2353 5.21523 8.00235 5.31947 7.76115C5.46714 7.5615 5.54532 7.28696 5.72774 7.11226C6.22288 6.22215 6.96125 5.55664 7.71699 4.91609C8.53356 4.34209 9.46299 3.87623 10.5836 3.59339C11.6608 3.36047 13.1288 3.31887 14.2928 3.56011C16.6556 4.02597 18.4363 5.04087 19.9304 6.33861C21.4419 7.61137 22.6059 9.22523 23.4051 11.1885C24.2304 13.052 24.517 15.9552 23.7786 18.0682C23.4746 17.9018 23.1705 17.7438 22.8665 17.5857C22.5016 17.4859 22.1455 17.3694 21.7198 17.3279C21.2074 17.3195 20.7035 17.3279 20.3735 17.4859C21.0423 17.4193 21.5809 17.594 21.9979 17.7438C22.2411 17.8353 22.38 17.8935 22.5712 18.0016C22.9447 18.2096 23.2748 18.4009 23.5528 18.6838C24.3433 19.3493 24.9079 20.2311 25.1772 21.3958C25.1772 21.429 25.2206 21.4207 25.2119 21.3625C25.2467 21.3541 25.264 21.3292 25.2814 21.2959C25.3248 21.246 25.377 21.1961 25.4204 21.1378C25.5072 21.038 25.5941 20.9382 25.6549 20.8134C25.8374 20.6054 25.985 20.3725 26.124 20.1313C26.4454 19.682 26.6887 19.1663 26.9666 18.6754C27.4444 17.6273 27.8353 16.4959 28.0785 15.2148C28.565 12.3698 27.9829 9.67447 26.9666 7.6863C25.9242 5.68142 24.4649 4.07588 22.5798 2.86965C20.6775 1.67174 18.4537 0.789938 15.396 0.706746C15.3786 0.648514 15.3525 0.715065 15.2917 0.706746C13.676 0.656833 12.3731 0.87312 11.0787 1.18924C10.4793 1.38057 9.85393 1.54695 9.32398 1.80484C8.71598 1.99617 8.22952 2.31229 7.67355 2.54522C7.47376 2.72823 7.16973 2.81974 6.96125 2.99443C6.69196 3.11921 6.49217 3.31887 6.22288 3.44365C5.78855 3.80968 5.32815 4.13411 4.90251 4.50847C4.48555 4.87449 4.12071 5.29044 3.72112 5.6731C3.66031 5.80621 3.55608 5.89772 3.45183 5.99754C3.38235 6.12232 3.29548 6.23047 3.18255 6.32198C3.13912 6.47171 3.00013 6.52994 2.94801 6.67969C2.83509 6.76288 2.80902 6.92925 2.67873 7.00412C2.56579 7.27033 2.36601 7.46166 2.2357 7.7112C2.07934 7.95248 1.95773 8.21865 1.80137 8.4516C1.55814 8.99235 1.29754 9.51645 1.09776 10.0988C0.88927 10.6644 0.715539 11.2634 0.593926 11.9123C0.463625 12.5195 0.342013 13.3098 0.359386 13.9504C0.272519 14.1833 0.342013 14.6159 0.359386 14.8904C0.359386 14.9403 0.324639 14.9569 0.324639 14.9902C0.324639 15.298 0.411506 15.6724 0.428879 15.8637C0.498372 16.5708 0.628672 17.228 0.837153 17.802C0.96745 18.4426 1.24543 18.9417 1.44522 19.5157C1.74925 19.9981 1.95773 20.5722 2.32257 21.0047C2.59186 21.5122 2.97407 21.9115 3.33891 22.3274C3.72981 22.7267 4.12071 23.1343 4.58979 23.4588C5.44977 24.1742 6.45742 24.7483 7.56063 25.2391C9.6194 26.1957 12.6944 26.8196 15.4568 26.6616C16.1604 26.5701 16.8727 26.4868 17.5155 26.3372C18.1062 26.1292 18.7925 26.0044 19.5048 25.9212C21.1292 25.8214 22.5364 25.9628 23.7873 26.3122C25.0556 26.6366 26.1501 27.1274 27.0969 27.768C27.6008 28.0508 28.0177 28.4168 28.4434 28.7663C28.8777 29.124 29.2252 29.5649 29.6247 29.9642C29.6768 30.1139 29.7811 30.2221 29.8593 30.3551C29.9635 30.4633 29.9114 30.7129 30.1633 30.6796C30.3196 30.5299 30.1372 30.3136 30.1286 30.1306C29.9722 29.9725 29.9375 29.7645 29.8159 29.6314Z"
         fill="#FF8C00" />
       <path
         d="M23.5093 20.7797C23.4745 20.7797 23.4658 20.8046 23.4398 20.8129C23.379 20.9377 23.405 21.1374 23.4398 21.2622C23.6222 21.6198 23.683 22.0857 24.0826 22.2354C24.2737 22.1772 24.2563 21.911 24.2476 21.6531C24.1608 21.337 24.0392 21.0542 23.8394 20.8462C23.7004 20.7963 23.6048 20.7131 23.5093 20.7797ZM21.1465 21.6864C21.1465 21.6698 21.1204 21.6531 21.1117 21.6864C20.7817 21.6448 20.6688 21.8195 20.5037 21.9443C20.217 22.668 20.6775 23.3751 21.4853 23.3668C21.8067 23.292 22.0065 23.0923 22.0586 22.7512C22.0152 22.1439 21.7459 21.753 21.1465 21.6864Z"
         fill="#FCB316" />
       <path
         d="M40.622 19.3824C40.7523 19.9065 41.0303 20.2808 41.343 20.6301C41.6558 20.9796 42.0206 21.2707 42.4636 21.487C42.8806 21.7366 43.3323 21.9445 43.8534 22.086C44.1054 22.1691 44.3486 22.269 44.6613 22.3023C44.8785 22.4187 45.1391 22.4769 45.1565 22.7764C45.1478 23.1342 44.8959 23.2672 44.5744 23.3338C44.2531 23.2672 43.8534 23.2755 43.5842 23.1591C42.9066 23.0842 42.3594 22.8762 41.7861 22.6849C40.6915 22.2773 39.7707 21.6867 39.0063 20.9629C38.85 20.7134 38.6328 20.5137 38.4677 20.2725C38.3027 20.0312 38.1898 19.74 38.016 19.4988C36.6783 19.3324 35.7662 18.7501 34.967 18.0763C34.2286 17.2693 33.6379 16.3044 33.3947 15.0233C33.1081 13.7921 33.195 12.2531 33.5337 11.0635C34.2721 8.75913 35.8183 7.22848 38.737 7.02051C39.5449 7.04547 40.2485 7.13698 40.8913 7.3699C41.5428 7.59453 42.1596 8.01048 42.646 8.443C42.6895 8.4763 42.7068 8.48463 42.7329 8.52625C42.8371 8.66763 43.089 8.86728 43.2281 9.04195C43.2541 9.07525 43.2454 9.13353 43.2715 9.17508C43.3236 9.24993 43.4018 9.28323 43.4539 9.34975C43.48 9.39138 43.4713 9.44133 43.4973 9.47455C43.5321 9.5245 43.5755 9.59935 43.6276 9.69085C43.645 9.72415 43.7058 9.74913 43.7145 9.77403C43.7926 9.91548 43.8274 10.0902 43.8969 10.2483C43.9664 10.4146 44.062 10.5561 44.1228 10.7224C44.2965 11.2132 44.4094 11.7955 44.4789 12.3945C44.6526 14.1248 44.2965 15.6721 43.6276 16.8201C43.3149 17.4191 42.8806 17.9099 42.368 18.3258C41.899 18.8 41.2562 19.0829 40.622 19.3824ZM38.4677 8.55115C38.0768 8.57613 37.8423 8.7508 37.5209 8.85063C37.3124 9.0337 37.0518 9.17508 36.8955 9.40803C36.6348 9.54948 36.5654 9.86553 36.3569 10.0486C36.1832 10.4645 36.0181 10.9304 35.9052 11.4711C35.8009 12.0035 35.7314 12.6024 35.7228 13.1931C35.7141 14.6739 36.0442 16.1463 36.6609 17.0198C37.0258 17.4441 37.4688 17.7934 38.0074 18.0513C38.32 18.0763 38.5633 18.1761 38.9021 18.1844C39.0932 18.1179 39.4059 18.1844 39.5275 18.0513C39.8055 18.068 39.8663 17.8932 40.1096 17.8767C40.2398 17.7519 40.3788 17.652 40.5612 17.5771C40.7262 17.4024 40.8827 17.2278 41.0564 17.0614C41.1432 16.9366 41.1954 16.7619 41.3256 16.6704C42.1074 15.2395 42.1943 12.6191 41.6818 10.9554C41.4907 10.3481 41.2214 9.8572 40.9174 9.44958C40.5873 9.1252 40.1964 8.85063 39.7534 8.6344C39.3972 8.55948 39.0584 8.46798 38.5894 8.5096C38.5633 8.5096 38.5373 8.51793 38.546 8.55115C38.5286 8.55115 38.5025 8.55115 38.4677 8.55115ZM47.9449 7.34494C48.6485 7.3699 49.4737 7.28671 50.0992 7.38654C50.2381 7.59453 50.186 7.84405 50.186 8.077C50.2381 11.2299 50.186 14.6157 50.186 17.835C50.186 18.0929 50.1947 18.3591 50.186 18.6087C50.1773 18.825 50.2381 19.0579 50.0992 19.2576C49.7865 19.3324 49.3347 19.2992 48.9352 19.2992C48.5095 19.2992 48.0926 19.3574 47.8146 19.2159C47.7364 15.4059 47.7364 11.2964 47.8146 7.47805C47.8319 7.41149 47.8754 7.3699 47.9449 7.34494ZM53.3306 7.34494H55.4415C55.6326 7.59453 55.6933 7.96885 55.7542 8.33485C56.3883 10.6476 57.0138 12.9685 57.5958 15.3394C57.7348 15.356 57.6913 15.198 57.7348 15.1231C57.7956 15.0648 57.7608 14.9235 57.8216 14.8652C57.8477 14.6739 57.9693 14.574 57.9606 14.3494C58.1169 14.0583 58.169 13.659 58.3168 13.3595C58.4992 12.6607 58.7424 12.0118 58.9509 11.338C59.1507 10.6392 59.42 10.007 59.5763 9.2749C59.8717 8.68428 59.9412 7.87735 60.2973 7.34494H61.192C61.5135 7.92723 61.6351 8.70093 61.913 9.32485C62.0954 10.0236 62.3474 10.6559 62.5385 11.3463C62.9815 12.6857 63.4419 14.0084 63.8415 15.3893C64.0239 15.1314 64.0239 14.6988 64.1542 14.3994C64.2324 14.0583 64.3018 13.7089 64.4234 13.4094C64.771 12.0451 65.101 10.6725 65.5006 9.3664C65.6483 8.68428 65.796 7.9855 66.0392 7.38654C66.5604 7.31167 67.3596 7.31167 67.8808 7.38654C67.9242 7.894 67.681 8.443 67.5246 8.89225C67.4377 9.44133 67.2293 9.86553 67.1164 10.398C66.7949 11.3713 66.5517 12.4028 66.2216 13.3678C65.9697 14.3994 65.6309 15.3477 65.3703 16.3792C65.1966 16.8534 65.075 17.3775 64.9186 17.8849C64.7449 18.3508 64.6841 18.9248 64.4234 19.3074H63.1639C62.8425 18.7668 62.7296 18.0347 62.4429 17.4607C61.8175 15.564 61.1225 13.7421 60.5144 11.8288C60.306 12.0368 60.306 12.4611 60.1583 12.7272C60.0628 13.0517 59.9672 13.3761 59.8456 13.6756C59.6718 14.3328 59.4113 14.8902 59.2636 15.564C59.0117 16.1546 58.8292 16.8118 58.6382 17.4607C58.3776 18.0264 58.282 18.7501 57.9606 19.2659C57.6305 19.3657 57.1093 19.2825 56.7011 19.3074C56.3883 18.9664 56.3536 18.3508 56.1625 17.8849C56.0148 17.4024 55.9106 16.87 55.7194 16.4208C55.4762 15.3726 55.1114 14.4492 54.8681 13.4094C54.5468 12.4444 54.2688 11.4378 53.9734 10.4396C53.8084 9.96535 53.6868 9.4579 53.5218 8.97543C53.4435 8.45965 53.0787 7.99383 53.209 7.42813C53.2264 7.38654 53.2785 7.36158 53.3306 7.34494ZM71.0601 7.34494C71.7637 7.3699 72.5803 7.28671 73.2144 7.38654C73.3708 7.83573 73.3013 8.31828 73.3013 8.80075V17.8267C73.3013 18.3175 73.3621 18.7917 73.2144 19.2492C72.7279 19.2992 72.0156 19.3241 71.4162 19.2909C71.2425 19.2825 71.034 19.3324 70.9211 19.2076C70.7647 18.7584 70.8342 18.2842 70.8342 17.7851V8.85063C70.8342 8.30995 70.7821 7.78585 70.9211 7.42813C70.9559 7.38654 71.008 7.36158 71.0601 7.34494Z"
         fill="white" />
     </g>
   </symbol>


   <symbol id="lil-star" viewBox="0 0 16 16">
     <g>
       <path d="M8 0L9.13137 6.86863L16 8L9.13137 9.13137L8 16L6.86863 9.13137L0 8L6.86863 6.86863L8 0Z"
         fill="#E93745" />
     </g>
   </symbol>

   <symbol id="icon-clear--dark" viewBox="0 0 24 24">
     <g>
       <circle cx="12" cy="12" r="12" fill="#273355" />
       <path d="M15 9L9 15" stroke="white" stroke-linecap="round" stroke-linejoin="round" />
       <path d="M9 9L15 15" stroke="white" stroke-linecap="round" stroke-linejoin="round" />
     </g>
   </symbol>

   <symbol id="icon-clear--white" viewBox="0 0 24 24">
     <g>
       <circle cx="12" cy="12" r="12" fill="#F9F9F9" />
       <path d="M15 9L9 15" stroke="black" stroke-linecap="round" stroke-linejoin="round" />
       <path d="M9 9L15 15" stroke="black" stroke-linecap="round" stroke-linejoin="round" />
     </g>
   </symbol>

   <symbol id="icon-wrong--dark" viewBox="0 0 24 24">
     <g>
       <circle cx="12" cy="12" r="12" fill="#273355" />
       <path d="M12 7V12.4546" stroke="#E93745" stroke-width="2" stroke-linecap="round" stroke-linejoin="round" />
       <path d="M12 16.0908V16.0991" stroke="#E93745" stroke-width="2" stroke-linecap="round" stroke-linejoin="round" />
     </g>
   </symbol>

   <symbol id="icon-wrong--white" viewBox="0 0 24 24">
     <g>
       <circle cx="12" cy="12" r="12" fill="#F9F9F9" />
       <path d="M12 7V12.4546" stroke="#E93745" stroke-width="2" stroke-linecap="round" stroke-linejoin="round" />
       <path d="M12 16.0908V16.0991" stroke="#E93745" stroke-width="2" stroke-linecap="round" stroke-linejoin="round" />
     </g>
   </symbol>

   <symbol id="icon-hide-pass--dark" viewBox="0 0 24 24">
     <g>
       <circle cx="12" cy="12" r="12" fill="#273355" />
       <path
         d="M17.5 11C17.5 11.7223 17.3577 12.4375 17.0813 13.1048C16.8049 13.772 16.3998 14.3784 15.8891 14.8891C15.3784 15.3998 14.772 15.8049 14.1048 16.0813C13.4375 16.3577 12.7223 16.5 12 16.5C11.2777 16.5 10.5625 16.3577 9.89524 16.0813C9.22795 15.8049 8.62163 15.3998 8.11091 14.8891C7.60019 14.3784 7.19506 13.772 6.91866 13.1048C6.64226 12.4375 6.5 11.7223 6.5 11"
         stroke="white" stroke-linecap="round" fill="#273355" />
       <line x1="12.5" y1="18.5" x2="12.5" y2="16.5" stroke="white" stroke-linecap="round" />
       <line x1="6" y1="15.2282" x2="7.41421" y2="13.814" stroke="white" stroke-linecap="round" />
       <line x1="16.7071" y1="14" x2="18.1213" y2="15.4142" stroke="white" stroke-linecap="round" />
     </g>
   </symbol>

   <symbol id="icon-hide-pass--white" viewBox="0 0 24 24">
     <g>
       <circle cx="12" cy="12" r="12" fill="#F9F9F9" />
       <path
         d="M17.5 11C17.5 11.7223 17.3577 12.4375 17.0813 13.1048C16.8049 13.772 16.3998 14.3784 15.8891 14.8891C15.3784 15.3998 14.772 15.8049 14.1048 16.0813C13.4375 16.3577 12.7223 16.5 12 16.5C11.2777 16.5 10.5625 16.3577 9.89524 16.0813C9.22795 15.8049 8.62163 15.3998 8.11091 14.8891C7.60019 14.3784 7.19506 13.772 6.91866 13.1048C6.64226 12.4375 6.5 11.7223 6.5 11"
         stroke="black" stroke-linecap="round" fill="#F9F9F9" />
       <line x1="12.5" y1="18.5" x2="12.5" y2="16.5" stroke="black" stroke-linecap="round" />
       <line x1="6" y1="15.2281" x2="7.41421" y2="13.8139" stroke="black" stroke-linecap="round" />
       <line x1="16.7071" y1="14" x2="18.1213" y2="15.4142" stroke="black" stroke-linecap="round" />
     </g>
   </symbol>

   <symbol id="icon-show-pass--dark" viewBox="0 0 24 24">
     <g>
       <circle cx="12" cy="12" r="12" fill="#273355" />
       <path
         d="M6.90802 9.92113C7.31918 8.91403 8.01974 8.05147 8.92113 7.44253C9.82251 6.83359 10.8842 6.50561 11.972 6.50007C13.0598 6.49453 14.1248 6.81169 15.0323 7.41142C15.9399 8.01116 16.6492 8.86654 17.0706 9.8694"
         stroke="white" stroke-linecap="round" />
       <line x1="12" y1="4.5" x2="12" y2="6.23684" stroke="white" stroke-linecap="round" />
       <line x1="18" y1="7.50874" x2="16.7719" y2="8.73688" stroke="white" stroke-linecap="round" />
       <line x1="7.29289" y1="8.73682" x2="6.06476" y2="7.50868" stroke="white" stroke-linecap="round" />
       <circle cx="12" cy="12" r="5.5" stroke="white" />
       <circle cx="12" cy="12" r="1.75" fill="white" stroke="white" />
       <circle cx="10.5" cy="10.5" r="1.5" fill="#273355" />
     </g>
   </symbol>

   <symbol id="icon-show-pass--white" viewBox="0 0 24 24">
     <g>
       <circle cx="12" cy="12" r="12" fill="#F9F9F9" />
       <path
         d="M6.90802 9.92113C7.31918 8.91403 8.01974 8.05147 8.92113 7.44253C9.82251 6.83359 10.8842 6.50561 11.972 6.50007C13.0598 6.49453 14.1248 6.81169 15.0323 7.41142C15.9399 8.01116 16.6492 8.86654 17.0706 9.8694"
         stroke="#1A2442" stroke-linecap="round" />
       <line x1="12" y1="4.5" x2="12" y2="6.23684" stroke="#1A2442" stroke-linecap="round" />
       <line x1="18" y1="7.50874" x2="16.7719" y2="8.73688" stroke="#1A2442" stroke-linecap="round" />
       <line x1="7.29289" y1="8.73682" x2="6.06476" y2="7.50868" stroke="#1A2442" stroke-linecap="round" />
       <circle cx="12" cy="12" r="5.5" stroke="#1A2442" />
       <circle cx="12" cy="12" r="1.75" fill="#1A2442" stroke="#1A2442" />
       <circle cx="10.5" cy="10.5" r="1.5" fill="#F3F6FB" />
     </g>
   </symbol>

   <symbol id="wallet-icon" viewBox="0 0 17 16">
     <g>
       <rect x="1.8085" y="6.08572" width="10.8053" height="6.84938" rx="1.5" transform="rotate(-30 1.8085 6.08572)"
         stroke="white" />
       <rect y="3.20007" width="16" height="10.4" fill="#232E50" />
       <rect x="0.5" y="4.5" width="15.8" height="11" rx="1.5" stroke="white" fill="transparent" />
       <path d="M11.7 10C11.7 9.17157 12.3716 8.5 13.2 8.5H16.3V11.5H13.2C12.3716 11.5 11.7 10.8284 11.7 10Z"
         stroke="white" />
     </g>
   </symbol>

   <symbol id="wallet-icon-2" viewBox="0 0 19 18">
     <g>
       <rect x="2.36603" y="6.8005" width="10.8689" height="6.39" rx="1" transform="rotate(-30 2.36603 6.8005)"
         stroke="#111B33" stroke-width="2" />
       <rect y="4" width="16" height="12" fill="#5BCAD2" />
       <rect x="0.5" y="6.5" width="15.8" height="11" rx="1.5" fill="#060F23" stroke="#111B33" />
       <path d="M11 12C11 10.8954 11.8954 10 13 10H18V14H13C11.8954 14 11 13.1046 11 12V12Z" stroke="#5BCAD2"
         stroke-width="2" />
     </g>
   </symbol> 

   <symbol id="attention-icon" viewBox="0 0 24 24">
     <g>
       <circle cx="12" cy="12" r="11.5" />
       <path d="M12 7V12.4546" stroke-width="2" stroke-linecap="round" stroke-linejoin="round" />
       <path d="M12 16.0908V16.0991" stroke-width="2" stroke-linecap="round" stroke-linejoin="round" />
     </g>
   </symbol>

   <symbol id="quest-icon" viewBox="0 0 26 24">
     <g>
       <path
         d="M1.08156 23.5L4.63293 19.3239L4.8865 19.0257L4.65793 18.708C3.29975 16.82 2.49994 14.5041 2.49994 12C2.49994 5.64873 7.64868 0.5 14 0.5C20.3513 0.5 25.5 5.64873 25.5 12C25.5 18.3513 20.3513 23.5 14 23.5H13.9905H13.9808H13.9709H13.9607H13.9503H13.9396H13.9287H13.9175H13.9062H13.8945H13.8827H13.8706H13.8582H13.8456H13.8328H13.8198H13.8065H13.793H13.7793H13.7654H13.7512H13.7368H13.7221H13.7073H13.6922H13.6769H13.6614H13.6456H13.6297H13.6135H13.5971H13.5805H13.5637H13.5466H13.5294H13.5119H13.4943H13.4764H13.4583H13.44H13.4215H13.4028H13.3839H13.3648H13.3455H13.3259H13.3062H13.2863H13.2662H13.2459H13.2254H13.2047H13.1838H13.1627H13.1414H13.12H13.0983H13.0765H13.0544H13.0322H13.0098H12.9872H12.9645H12.9415H12.9184H12.8951H12.8716H12.8479H12.8241H12.8H12.7758H12.7515H12.7269H12.7022H12.6773H12.6523H12.627H12.6016H12.5761H12.5503H12.5245H12.4984H12.4722H12.4458H12.4193H12.3926H12.3657H12.3387H12.3115H12.2842H12.2567H12.2291H12.2013H12.1734H12.1453H12.1171H12.0887H12.0601H12.0315H12.0026H11.9737H11.9446H11.9153H11.8859H11.8564H11.8267H11.7969H11.767H11.7369H11.7067H11.6764H11.6459H11.6153H11.5845H11.5537H11.5227H11.4916H11.4603H11.4289H11.3974H11.3658H11.3341H11.3022H11.2702H11.2381H11.2059H11.1736H11.1411H11.1086H11.0759H11.0431H11.0102H10.9772H10.944H10.9108H10.8775H10.844H10.8105H10.7768H10.743H10.7092H10.6752H10.6412H10.607H10.5727H10.5384H10.5039H10.4694H10.4347H10.4H10.3652H10.3302H10.2952H10.2601H10.225H10.1897H10.1543H10.1189H10.0834H10.0478H10.0121H9.9763H9.94045H9.90452H9.86852H9.83243H9.79628H9.76005H9.72375H9.68737H9.65092H9.61441H9.57782H9.54117H9.50445H9.46766H9.43081H9.3939H9.35692H9.31988H9.28278H9.24562H9.2084H9.17112H9.13379H9.0964H9.05896H9.02146H8.98392H8.94632H8.90867H8.87097H8.83322H8.79543H8.75758H8.7197H8.68177H8.6438H8.60578H8.56772H8.52963H8.49149H8.45332H8.41511H8.37686H8.33858H8.30027H8.26192H8.22355H8.18514H8.1467H8.10823H8.06974H8.03122H7.99267H7.9541H7.91551H7.87689H7.83825H7.7996H7.76092H7.72222H7.68351H7.64478H7.60604H7.56728H7.52851H7.48973H7.45094H7.41214H7.37333H7.33451H7.29568H7.25685H7.21801H7.17917H7.14033H7.10149H7.06264H7.0238H6.98496H6.94612H6.90728H6.86845H6.82963H6.79081H6.752H6.7132H6.67441H6.63562H6.59686H6.5581H6.51936H6.48063H6.44192H6.40323H6.36455H6.3259H6.28726H6.24865H6.21005H6.17149H6.13294H6.09442H6.05593H6.01747H5.97903H5.94062H5.90225H5.8639H5.82559H5.78732H5.74907H5.71087H5.6727H5.63457H5.59647H5.55842H5.52041H5.48244H5.44451H5.40663H5.36879H5.331H5.29326H5.25556H5.21792H5.18032H5.14278H5.10528H5.06785H5.03046H4.99313H4.95586H4.91865H4.88149H4.8444H4.80736H4.77039H4.73348H4.69664H4.65985H4.62314H4.58649H4.54991H4.5134H4.47696H4.44059H4.40429H4.36807H4.33192H4.29584H4.25985H4.22392H4.18808H4.15232H4.11664H4.08104H4.04552H4.01008H3.97473H3.93947H3.90429H3.8692H3.8342H3.79929H3.76447H3.72974H3.69511H3.66056H3.62612H3.59177H3.55751H3.52336H3.4893H3.45535H3.42149H3.38774H3.35409H3.32055H3.28711H3.25378H3.22055H3.18744H3.15443H3.12153H3.08875H3.05608H3.02352H2.99108H2.95875H2.92654H2.89445H2.86247H2.83062H2.79889H2.76728H2.73579H2.70442H2.67319H2.64207H2.61109H2.58023H2.54951H2.51891H2.48844H2.45811H2.42791H2.39784H2.36791H2.33812H2.30847H2.27895H2.24957H2.22034H2.19124H2.16229H2.13348H2.10482H2.0763H2.04793H2.01971H1.99163H1.96371H1.93594H1.90832H1.88085H1.85354H1.82638H1.79938H1.77254H1.74585H1.71933H1.69296H1.66676H1.64072H1.61484H1.58913H1.56358H1.5382H1.51298H1.48794H1.46307H1.43836H1.41383H1.38947H1.36529H1.34128H1.31744H1.29379H1.27031H1.24701H1.22389H1.20095H1.17819H1.15562H1.13323H1.11103H1.08901H1.08156Z" />
       <path
         d="M14.3516 16.3271C14.3516 16.5133 14.286 16.672 14.1548 16.8032C14.0236 16.9344 13.867 17 13.6851 17C13.4989 17 13.3402 16.9344 13.209 16.8032C13.0778 16.672 13.0122 16.5133 13.0122 16.3271C13.0122 16.1452 13.0778 15.9886 13.209 15.8574C13.3402 15.7262 13.4989 15.6606 13.6851 15.6606C13.867 15.6606 14.0236 15.7262 14.1548 15.8574C14.286 15.9886 14.3516 16.1452 14.3516 16.3271ZM13.7231 7.64355C13.1942 7.64355 12.716 7.80225 12.2886 8.11963C11.8696 8.42432 11.5776 8.82422 11.4126 9.31934C11.3491 9.514 11.3787 9.69385 11.5015 9.85889C11.6242 10.0239 11.7871 10.1064 11.9902 10.1064C12.278 10.1064 12.4663 9.97314 12.5552 9.70654C12.6398 9.45687 12.7858 9.25586 12.9932 9.10352C13.209 8.94271 13.4523 8.8623 13.7231 8.8623H13.7612C14.0998 8.8623 14.3896 8.98291 14.6309 9.22412C14.8721 9.46956 14.9927 9.76367 14.9927 10.1064V10.3032C14.9927 10.7433 14.8086 11.084 14.4404 11.3252C14.0342 11.5622 13.7083 11.8838 13.4629 12.29C13.2048 12.7132 13.0757 13.1618 13.0757 13.6357V14.5562C13.0757 14.7212 13.1328 14.863 13.2471 14.9814C13.3656 15.0957 13.5073 15.1528 13.6724 15.1528C13.8332 15.1528 13.9728 15.0957 14.0913 14.9814C14.2056 14.863 14.2627 14.7212 14.2627 14.5562V13.6357C14.2627 13.0898 14.4954 12.6751 14.9609 12.3916C15.7819 11.9176 16.1924 11.2152 16.1924 10.2842V10.1064C16.1924 9.42936 15.9554 8.84961 15.4814 8.36719C15.0075 7.88477 14.4341 7.64355 13.7612 7.64355H13.7231Z"
         fill="white" />
     </g>
   </symbol>

   <symbol id="icon-exit" viewBox="0 0 21 26">
     <g>
       <rect x="7.84988" y="2.10781" width="12.3" height="16.3" rx="2.15" stroke="white" stroke-width="1.7" />
       <path
         d="M13.8499 8.58678C13.8499 7.98026 14.1061 7.40196 14.5553 6.99443L19.8991 2.14635C19.9312 2.11725 19.9567 2.10932 19.976 2.10666C19.9996 2.10342 20.0296 2.10655 20.0606 2.12029C20.0917 2.13404 20.1141 2.15417 20.1276 2.17379C20.1386 2.18992 20.1499 2.21414 20.1499 2.25744V17.7578C20.1499 18.4346 19.8313 19.0718 19.2899 19.4778L15.6899 22.1778C14.9318 22.7464 13.8499 22.2055 13.8499 21.2578V8.58678Z"
         fill="#232E50" stroke="white" stroke-width="1.7" />
       <rect x="17.9999" y="1.25781" width="2" height="1" fill="white" />
       <rect x="5.99988" y="5" width="3" height="11" fill="#232E50" />
       <line x1="7.84988" y1="4.85" x2="7.84988" y2="5.15" stroke="white" stroke-width="1.7" stroke-linecap="round" />
       <line x1="7.84988" y1="14.85" x2="7.84988" y2="16.15" stroke="white" stroke-width="1.7" stroke-linecap="round" />
       <path
         d="M0.688023 10.8139H9.39614C9.77563 10.8139 10.0836 10.5059 10.0836 10.1264C10.0836 9.74695 9.77563 9.43896 9.39614 9.43896H0.688023C0.308533 9.43896 0.000543594 9.74695 0.000543594 10.1264C0.000543594 10.5059 0.308533 10.8139 0.688023 10.8139Z"
         fill="white" />
       <path
         d="M4.12555 14.2514C4.30162 14.2514 4.47752 14.1844 4.61146 14.0498C4.88 13.7811 4.88 13.3457 4.61146 13.0772L1.65979 10.1257L4.61146 7.17401C4.88 6.90546 4.88 6.47008 4.61146 6.20154C4.34274 5.93282 3.90736 5.93282 3.63881 6.20154L0.201417 9.63893C-0.0671291 9.90748 -0.0671291 10.3429 0.201417 10.6114L3.63881 14.0488C3.77359 14.1844 3.94949 14.2514 4.12555 14.2514Z"
         fill="white" />
     </g>
   </symbol>

   <symbol id="icon-pen" viewBox="0 0 18 18">
     <g>
       <path d="M13.7298 1L17 4.46922L5.17008 16.2171L1 17L1.89988 12.748L13.7298 1Z" stroke-linecap="round"
         stroke-linejoin="round" />
     </g>
   </symbol>

   <symbol id="icon-trash" viewBox="0 0 16 16">
     <g>
       <path d="M2.5 3.5H13.5V14C13.5 14.8284 12.8284 15.5 12 15.5H4C3.17157 15.5 2.5 14.8284 2.5 14V3.5Z" />
       <path d="M4.5 3.5H11.5V2C11.5 1.17157 10.8284 0.5 10 0.5H6C5.17157 0.5 4.5 1.17157 4.5 2V3.5Z" />
       <line x1="15.5" y1="3.5" x2="0.5" y2="3.5" stroke-linecap="round" />
     </g>
   </symbol>

   <symbol id="icon-ok" viewBox="0 0 18 13">
     <g>
       <path d="M17 1L6 12L1 7" fill="transparent" stroke-width="1.5" stroke-linecap="round" stroke-linejoin="round" />
     </g>
   </symbol>

   <symbol id="template" width="0" height="0" viewbox="0 0 0 0">
     <g>
       <path
         d="M 23 12.3 C 23 6.1 18.1 1 12 1 C 5.9 1 1 6.1 1 12.3 V 27.7 C 1 33.9 5.9 39 12 39 C 18.1 39 23 33.9 23 27.7 V 12.3 Z"
         stroke="white" stroke-width="2" />
       <path d="M 11 10 H 13 V 18 H 11 V 10 Z" />
     </g>
   </symbol>


 </svg>